<svg width="2000" height="608" viewBox="0 0 2000 608" fill="none" xmlns="http://www.w3.org/2000/svg">
<path fill-rule="evenodd" clip-rule="evenodd" d="M62.4985 147.505H45.8205V119.505H122.309V147.505H114.258L134.099 230.915H134.962L149.914 174.326L141.288 147.505H129.498V119.505H210.588V147.505H197.36L219.789 231.21H220.94L240.781 147.505H225.828V119.505H286.789V147.505H269.823L237.33 266.872H184.42L166.017 195.842L147.039 266.872H94.7043L62.4985 147.505ZM26.217 188.933C10.7183 181.586 0 165.797 0 147.505V119.505C0 94.1987 20.5146 73.6836 45.8205 73.6836H122.309C123.519 73.6836 124.718 73.7305 125.904 73.8225C127.09 73.7305 128.288 73.6836 129.498 73.6836H210.588C213.184 73.6836 215.729 73.8995 218.208 74.3144C220.686 73.8995 223.232 73.6836 225.828 73.6836H286.789C296.554 73.6836 305.605 76.7381 313.039 81.9439C330.211 74.2142 348.638 70.7362 367.535 70.7362C379.461 70.7362 391.233 72.1229 402.613 75.1468V60.5585C402.613 35.2518 423.127 14.7367 448.433 14.7367H520.896C546.202 14.7367 566.717 35.2518 566.717 60.5585V70.9144C581.798 71.7559 596.324 75.5853 609.794 82.5583V45.8218C609.794 20.5151 630.308 0 655.614 0H683.219C696.529 0 708.513 5.67474 716.884 14.7367H808.879C834.185 14.7367 854.7 35.2518 854.7 60.5585V73.6836H896.83C900.873 73.6836 904.793 74.2072 908.527 75.1903C918.455 72.101 928.662 70.7362 938.812 70.7362C956.255 70.7362 973.115 74.5557 988.628 82.5131C996.209 76.9615 1005.56 73.6836 1015.67 73.6836H1084.97C1087.92 73.6836 1090.8 73.9612 1093.58 74.4915C1096.65 73.5847 1099.77 72.8741 1102.92 72.3579C1110.89 65.6445 1121.18 61.5995 1132.42 61.5995H1143.97C1139.87 49.1006 1141.3 35.282 1148.19 23.7704C1156.46 9.94026 1171.39 1.47367 1187.51 1.47367H1253.64C1269.76 1.47367 1284.69 9.94023 1292.96 23.7704C1301.24 37.6005 1301.64 54.7606 1294.02 68.9615L1291.48 73.6836H1370.33C1372.87 73.6836 1375.37 73.8913 1377.8 74.2905C1380.24 73.8913 1382.74 73.6836 1385.28 73.6836H1442.44C1450.22 67.59 1460.02 63.9573 1470.67 63.9573H1495.98C1505.57 63.9573 1514.47 66.904 1521.83 71.9414C1527.85 71.1172 1533.91 70.7362 1539.97 70.7362C1567.92 70.7362 1595.9 78.5173 1617.61 99.5997L1617.66 99.6485C1623.58 94.6886 1630.03 90.2945 1636.96 86.4919C1656.28 75.692 1677.47 70.7362 1699.41 70.7362C1704.04 70.7362 1708.66 70.9423 1713.28 71.3437C1720.46 66.6717 1729.03 63.9573 1738.23 63.9573H1763.82C1774.11 63.9573 1784.04 67.4144 1792.05 73.6836H1866.48C1869.27 73.6836 1872.01 73.9343 1874.67 74.4144C1877.33 73.9343 1880.07 73.6836 1882.87 73.6836H1954.18C1979.49 73.6836 2000 94.1987 2000 119.505V147.505C2000 168.359 1986.07 185.96 1967.01 191.507L1945.69 248.056C1945.16 249.981 1944.59 251.639 1944.07 252.972C1943.44 254.876 1943.03 256.369 1942.78 257.483C1942.61 259.064 1942.49 261.094 1942.49 263.63V268.346C1942.49 285.116 1940.15 302.02 1933.86 317.793C1927.87 333.311 1918.08 347.987 1903.11 358.817C1888.2 369.605 1871.07 374.589 1853.54 374.589C1849.12 374.589 1844.73 374.331 1840.37 373.838C1833.66 377.691 1825.89 379.894 1817.59 379.894H1791.71C1766.41 379.894 1745.89 359.379 1745.89 334.072V322.421H1741.11C1731.78 322.421 1723.1 319.632 1715.86 314.843C1710.39 315.375 1704.91 315.642 1699.41 315.642C1680.96 315.642 1663.02 312.209 1646.24 304.775C1638.9 309.773 1630.04 312.694 1620.49 312.694H1554.64C1549.31 312.694 1544.19 311.785 1539.44 310.112C1527.15 314.01 1514.41 315.642 1501.73 315.642C1479.67 315.642 1455.85 310.233 1436.63 293.281C1436.48 293.147 1436.32 293.012 1436.17 292.876C1434.88 291.704 1433.64 290.506 1432.44 289.283C1424.42 303.598 1409.2 312.694 1392.47 312.694H1343.01C1328.62 312.694 1315.35 305.964 1306.81 294.966C1298.43 305.753 1285.33 312.694 1270.61 312.694H1190.94V401.683C1191.81 405.203 1192.27 408.882 1192.27 412.669V440.519C1192.27 459.209 1181.08 475.285 1165.03 482.414L1140.16 571.561C1134.63 591.369 1116.59 605.068 1096.02 605.068H1042.08C1035.34 605.068 1028.87 603.596 1023.03 600.921C1017.18 603.597 1010.72 605.068 1003.98 605.068H950.622C930.623 605.068 913.01 592.11 906.973 573.187C898.683 581.055 889.274 587.697 878.933 593.107C878.768 593.193 878.603 593.278 878.438 593.362C858.542 603.463 836.927 608 814.602 608C792.351 608 770.753 603.646 750.907 593.728C742.846 600.789 732.287 605.068 720.729 605.068H632.199C630.965 605.068 629.743 605.02 628.534 604.924C627.325 605.02 626.103 605.068 624.87 605.068H533.994C521.193 605.068 509.617 599.818 501.303 591.354C492.605 601.013 480.002 607.087 465.98 607.087H82.9766C56.733 607.087 35.459 585.812 35.459 559.568V415.595C35.459 389.992 55.7077 369.118 81.0645 368.114V310.621C66.3897 306.044 54.6307 294.246 50.4657 278.809L26.217 188.933ZM899.418 249.778V279.168H849.671V147.505H827.53V119.505H896.83V138.074C901.622 131 907.469 125.695 914.37 122.158C916.318 121.133 918.344 120.249 920.45 119.505C921.931 118.983 923.451 118.53 925.01 118.146C929.312 117.087 933.912 116.558 938.812 116.558C940.075 116.558 941.326 116.59 942.563 116.655C949.819 117.034 956.635 118.523 963.01 121.123C965.351 122.078 967.632 123.182 969.853 124.435C970.73 124.93 971.598 125.448 972.456 125.99C976.159 128.325 979.558 131.027 982.653 134.095C986.57 137.979 990 142.449 992.942 147.505C993.933 149.207 994.868 150.975 995.748 152.81C1001.14 164.064 1003.92 177.076 1004.08 191.847C1004.08 192.293 1004.09 192.74 1004.09 193.189C1004.09 193.638 1004.08 194.085 1004.08 194.531C1003.91 209.11 1001.04 222.024 995.46 233.273C994.531 235.211 993.54 237.078 992.487 238.873C989.77 243.507 986.643 247.665 983.105 251.348C979.814 254.773 976.169 257.786 972.168 260.388C971.405 260.879 970.633 261.351 969.853 261.804C968.264 262.726 966.641 263.569 964.983 264.333C964.78 264.426 964.576 264.519 964.371 264.61C964.281 264.65 964.191 264.69 964.102 264.73C963.728 264.894 963.352 265.055 962.975 265.212C957.431 267.514 951.519 268.953 945.238 269.53C943.137 269.723 940.995 269.82 938.812 269.82C937.643 269.82 936.492 269.789 935.362 269.728C931.709 269.529 928.258 269.011 925.01 268.172C921.847 267.355 918.875 266.234 916.096 264.809C910.84 262.116 906.208 258.337 902.199 253.472C901.236 252.303 900.309 251.072 899.418 249.778ZM295.557 227.423C296.532 229.629 297.616 231.775 298.81 233.862C299.259 234.625 299.72 235.377 300.191 236.117C301.175 237.661 302.207 239.155 303.288 240.599C303.415 240.77 303.544 240.939 303.672 241.108C303.781 241.25 303.89 241.393 304 241.534C310.021 249.306 317.492 255.591 326.415 260.388C329.065 261.813 331.794 263.077 334.602 264.179C343.1 267.514 352.319 269.371 362.259 269.748C363.527 269.796 364.806 269.82 366.097 269.82C366.674 269.82 367.249 269.814 367.822 269.803C371.44 269.734 374.987 269.445 378.462 268.936C381.646 268.639 384.776 268.286 387.851 267.877C388.849 267.745 389.84 267.606 390.826 267.462C393.2 267.067 395.424 266.651 397.497 266.212L397.673 266.175C397.772 266.154 397.871 266.133 397.97 266.111C401.889 265.267 405.259 264.341 408.079 263.336V276.599H433.672V215.589H404.629V217.357C404.603 217.454 404.575 217.552 404.546 217.65C403.527 221.116 400.967 225.046 396.865 229.441C396.775 229.542 396.685 229.642 396.595 229.743C396.544 229.799 396.493 229.855 396.441 229.911C396.375 229.984 396.308 230.057 396.242 230.13C393.732 232.857 390.935 235.363 387.851 237.649C387.437 237.956 387.018 238.259 386.594 238.558C386.508 238.619 386.421 238.68 386.334 238.74C386.25 238.799 386.166 238.857 386.082 238.915C384.922 239.716 383.723 240.488 382.487 241.231C380.307 242.588 378.205 243.669 376.183 244.475C375.768 244.64 375.356 244.794 374.948 244.936C372.448 245.806 370.073 246.241 367.822 246.241C367.239 246.241 366.664 246.218 366.097 246.173C361.815 245.828 357.98 244.18 354.595 241.231C351.499 238.534 348.841 234.748 346.621 229.874C346.091 228.711 345.586 227.486 345.106 226.199C345.066 226.083 345.026 225.966 344.986 225.848C343.966 222.829 343.101 219.514 342.39 215.903C341.721 212.506 341.189 208.847 340.792 204.926C340.687 203.881 340.591 202.818 340.505 201.736H444.023C444.215 200.164 444.311 198.691 444.311 197.315C444.503 195.743 444.599 194.27 444.599 192.894C444.556 189.555 444.365 186.307 444.023 183.15C443.548 178.747 442.782 174.521 441.725 170.472C440.384 165.335 438.576 160.483 436.3 155.914C435.828 154.966 435.335 154.029 434.822 153.105C434.415 152.359 433.996 151.624 433.567 150.9C432.331 148.815 431.003 146.822 429.583 144.92C429.494 144.8 429.404 144.68 429.313 144.561C428.143 143.015 426.911 141.53 425.617 140.106C420.601 134.584 414.659 129.977 407.792 126.284C405.025 124.724 402.147 123.352 399.158 122.167C389.723 118.428 379.181 116.558 367.535 116.558C367.247 116.558 366.959 116.559 366.672 116.561C354.868 116.656 344.095 118.687 334.352 122.655C334.055 122.776 333.758 122.899 333.462 123.024C333.177 123.145 332.893 123.267 332.609 123.39C330.595 124.27 328.626 125.235 326.702 126.284C317.769 131.158 310.297 137.531 304.287 145.402C304.042 145.723 303.8 146.046 303.56 146.372C303.284 146.746 303.011 147.124 302.742 147.505C301.641 149.062 300.593 150.673 299.599 152.34C299.332 152.787 299.069 153.239 298.81 153.695C298.538 154.186 298.272 154.681 298.011 155.179C292.175 166.333 289.184 179.031 289.039 193.273C289.035 193.637 289.033 194.002 289.033 194.368C289.033 206.566 291.208 217.584 295.557 227.423ZM342.363 171.261C341.684 175.162 341.161 179.425 340.792 184.052H393.127C392.697 179.558 392.132 175.439 391.432 171.696C391.348 171.245 391.262 170.8 391.174 170.36C390.518 167.09 389.755 164.121 388.883 161.453C388.77 161.109 388.656 160.77 388.54 160.436C388.441 160.15 388.34 159.868 388.238 159.589C387.78 158.298 387.296 157.073 386.784 155.914C384.728 151.254 382.241 147.665 379.324 145.147C375.902 142.193 371.972 140.627 367.535 140.449C367.249 140.437 366.962 140.431 366.672 140.431C361.88 140.431 357.662 142.102 354.02 145.442C351.165 147.906 348.722 151.397 346.691 155.914C346.131 157.16 345.603 158.483 345.106 159.884L345.078 159.969C343.995 163.316 343.09 167.08 342.363 171.261ZM471.437 266.872H518.596V248.01C523.388 255.28 529.235 260.781 536.137 264.515C537.894 265.415 539.726 266.201 541.632 266.872C543.201 267.425 544.819 267.899 546.488 268.296C550.759 269.312 555.36 269.82 560.291 269.82C561.654 269.82 563 269.783 564.33 269.71C571.924 269.294 578.973 267.687 585.478 264.89L585.654 264.814C588.52 263.571 591.28 262.095 593.934 260.388C597.721 257.925 601.19 255.094 604.34 251.894C604.464 251.768 604.587 251.642 604.71 251.515C604.775 251.447 604.84 251.379 604.905 251.312C609.799 246.21 613.906 240.197 617.226 233.273C622.786 221.68 625.565 208.319 625.565 193.189C625.565 190.582 625.483 188.028 625.318 185.526C624.749 176.901 623.199 168.9 620.668 161.523C619.767 158.895 618.741 156.346 617.591 153.877C617.471 153.619 617.349 153.361 617.226 153.105C615.402 149.301 613.341 145.783 611.042 142.55C609.098 139.817 606.985 137.288 604.701 134.963C601.456 131.657 597.866 128.764 593.934 126.284C591.169 124.485 588.307 122.936 585.35 121.636C585.035 121.498 584.719 121.362 584.402 121.229C578.841 118.901 572.946 117.443 566.717 116.856C564.613 116.657 562.471 116.558 560.291 116.558C555.4 116.558 550.799 117.12 546.488 118.243C543.365 119.056 540.393 120.165 537.574 121.568C531.057 124.909 525.497 129.821 520.896 136.305V60.5585H448.433V88.5583H471.437V266.872ZM518.969 182.09C518.529 185.62 518.308 189.32 518.308 193.189C518.308 196.288 518.456 199.287 518.752 202.184C519.281 207.369 520.283 212.23 521.759 216.768C524.251 223.841 527.606 229.441 531.823 233.568C533.113 234.774 534.443 235.804 535.815 236.658C539.133 238.724 542.691 239.757 546.488 239.757C547.306 239.757 548.105 239.718 548.884 239.639C548.977 239.63 549.07 239.62 549.162 239.61C549.322 239.591 549.482 239.572 549.641 239.55C553.478 239.029 556.837 237.526 559.716 235.041C559.772 234.992 559.828 234.943 559.883 234.894C560.02 234.772 560.156 234.647 560.291 234.521C563.287 231.707 565.732 227.761 567.625 222.685C567.979 221.735 568.314 220.745 568.63 219.715C570.739 212.838 571.793 203.996 571.793 193.189C571.793 182.382 570.739 173.54 568.63 166.663C568.355 165.74 568.065 164.85 567.76 163.993C565.849 158.621 563.359 154.566 560.291 151.829C560.101 151.66 559.91 151.496 559.716 151.337C557.078 149.06 554.039 147.608 550.597 146.98C550.462 146.955 550.326 146.932 550.19 146.91C549.003 146.717 547.769 146.621 546.488 146.621C543.538 146.621 540.732 147.244 538.07 148.492C535.891 149.513 533.808 150.953 531.823 152.81C527.606 156.74 524.251 162.242 521.759 169.315C520.465 173.294 519.535 177.552 518.969 182.09ZM565.385 183.527C565.385 183.528 565.378 183.543 565.363 183.571L565.37 183.556C565.373 183.55 565.376 183.545 565.378 183.54C565.38 183.535 565.382 183.532 565.383 183.529C565.384 183.528 565.385 183.527 565.385 183.527ZM655.614 131.884H682.932V121.863C682.932 118.523 683.507 116.067 684.657 114.495C685.999 112.923 687.916 111.842 690.408 111.253C693.006 110.682 696.682 110.388 701.435 110.37C701.547 110.369 701.661 110.369 701.775 110.369L701.91 110.369H752.232L693.571 161.358L707.374 180.221L710.249 177.568C712.827 175.278 715.558 173.462 718.444 172.12C718.778 171.965 719.113 171.816 719.451 171.673C720.048 171.435 720.642 171.218 721.233 171.021C724.059 170.081 726.82 169.61 729.515 169.61C733.924 169.61 737.854 170.986 741.305 173.736C742.691 174.709 743.967 175.881 745.131 177.252C747.025 179.483 748.625 182.24 749.931 185.526C751.146 188.582 752.011 192.062 752.526 195.966C752.905 198.839 753.094 201.941 753.094 205.273C753.094 211.479 752.396 217.111 750.999 222.172C750.76 223.04 750.5 223.891 750.219 224.726C748.494 230.227 745.714 234.648 741.88 237.989C739.26 240.137 736.193 241.551 732.678 242.231C731.049 242.547 729.324 242.704 727.502 242.704C725.073 242.704 722.643 242.423 720.213 241.859C716.846 241.079 713.478 239.757 710.111 237.894C708.921 237.236 707.731 236.51 706.542 235.717C705.669 235.135 704.796 234.517 703.923 233.862C702.225 232.514 700.593 231.097 699.027 229.614C698.411 229.03 697.805 228.436 697.209 227.832C696.987 227.606 696.766 227.379 696.547 227.151C695.545 226.109 694.573 225.036 693.631 223.933C691.64 221.603 689.781 219.138 688.053 216.538C686.975 214.916 685.948 213.241 684.973 211.514L684.944 211.462C682.844 207.587 681.204 203.845 680.024 200.234C678.512 195.605 677.756 191.194 677.756 187V185.526H650.726V275.42H678.331V256.852C680.332 257.334 682.334 257.891 684.335 258.522C684.629 258.615 684.923 258.709 685.217 258.805C686.181 259.119 687.144 259.45 688.108 259.799C691.061 260.64 693.874 261.481 696.547 262.322C696.816 262.406 697.084 262.491 697.351 262.576C697.53 262.633 697.707 262.69 697.884 262.746C702.677 265.104 708.14 266.971 714.275 268.346C717.567 269.084 720.859 269.624 724.151 269.966C725.268 270.082 726.385 270.176 727.502 270.246C729.228 270.355 730.953 270.409 732.678 270.409C744.537 270.409 755.228 268.9 764.751 265.882C765.124 265.764 765.496 265.643 765.865 265.521C769.024 264.47 772.052 263.251 774.948 261.862C779.27 259.719 783.224 257.303 786.81 254.614C793.088 249.908 798.24 244.366 802.266 237.989C802.818 237.113 803.347 236.228 803.851 235.334C809.12 225.984 811.755 215.571 811.755 204.094C811.755 199.106 811.244 194.39 810.223 189.946C809.032 184.762 807.147 179.948 804.566 175.505C804.332 175.092 804.094 174.684 803.851 174.281C801.367 170.155 798.429 166.519 795.035 163.374C792.592 161.11 789.913 159.1 786.998 157.344C786.255 156.897 785.498 156.466 784.725 156.052C783.919 155.591 783.103 155.153 782.277 154.737C779.815 153.497 777.263 152.457 774.622 151.618C770.301 150.245 765.74 149.407 760.939 149.106C760.182 149.058 759.419 149.024 758.649 149.003C758.047 148.987 757.442 148.979 756.833 148.979C755.357 148.979 753.823 149.068 752.232 149.246C750.929 149.392 749.587 149.598 748.206 149.863C746.269 150.111 744.448 150.477 742.74 150.96C741.744 151.242 740.786 151.564 739.867 151.926L808.879 88.2635V60.5585H683.219V45.8218H655.614V131.884ZM897.479 203.994C898.044 208.504 898.978 212.762 900.28 216.768C902.581 223.841 905.84 229.441 910.057 233.568C912.1 235.479 914.266 236.948 916.556 237.974C919.208 239.163 922.026 239.757 925.01 239.757C926.43 239.757 927.804 239.629 929.13 239.374C932.46 238.734 935.496 237.289 938.237 235.041C938.431 234.872 938.623 234.698 938.812 234.52C941.807 231.699 944.187 227.743 945.95 222.65C946.276 221.71 946.58 220.732 946.864 219.715C948.972 212.838 950.027 203.996 950.027 193.189C950.027 182.382 948.972 173.54 946.864 166.663C946.58 165.617 946.276 164.614 945.951 163.654C944.187 158.45 941.807 154.509 938.812 151.829C938.696 151.725 938.578 151.623 938.46 151.522C938.386 151.46 938.312 151.398 938.237 151.337C935.003 148.685 931.359 147.151 927.306 146.736C927.187 146.724 927.068 146.713 926.949 146.703C926.312 146.648 925.666 146.621 925.01 146.621C921.065 146.621 917.41 147.66 914.044 149.737C912.667 150.588 911.338 151.612 910.057 152.81C905.84 156.74 902.581 162.242 900.28 169.315C898.816 173.818 897.818 178.678 897.286 183.897C896.982 186.877 896.83 189.975 896.83 193.189C896.83 196.938 897.046 200.54 897.479 203.994ZM1015.67 266.872H1122.64V238.873H1087.56V187C1087.56 186.504 1087.56 186.012 1087.57 185.526L1087.57 185.301C1087.58 185.132 1087.58 184.965 1087.58 184.798C1087.59 184.526 1087.59 184.257 1087.6 183.988C1087.62 183.109 1087.66 182.246 1087.7 181.4C1087.99 175.916 1088.71 171.102 1089.86 166.958C1091.59 161.259 1093.79 156.937 1096.48 153.989C1099.35 150.845 1102.61 149.274 1106.25 149.274C1108.12 149.274 1110.1 149.763 1112.19 150.741C1112.95 151.095 1113.72 151.512 1114.51 151.994C1114.82 152.186 1115.13 152.387 1115.45 152.599C1115.51 152.639 1115.57 152.68 1115.63 152.721L1115.74 152.797C1116.36 153.218 1116.98 153.677 1117.61 154.173C1117.66 154.21 1117.71 154.247 1117.75 154.284C1118.04 154.503 1118.33 154.726 1118.61 154.953C1120.59 156.537 1122.4 158.307 1124.05 160.263C1124.42 160.701 1124.79 161.148 1125.14 161.604C1126.42 163.261 1127.6 165.04 1128.67 166.943L1128.68 166.958C1131.24 171.049 1132.73 175.071 1133.15 179.026C1133.19 179.382 1133.22 179.738 1133.24 180.093C1133.26 180.364 1133.27 180.635 1133.28 180.905C1133.28 181.07 1133.28 181.235 1133.28 181.4V185.526H1158.01V107.421H1132.42V121.274C1131.91 121.063 1131.36 120.852 1130.79 120.641L1130.76 120.628C1130.28 120.45 1129.78 120.273 1129.26 120.095L1125.81 118.916C1121.97 117.737 1118.62 117.147 1115.74 117.147C1114.54 117.147 1113.35 117.208 1112.19 117.328C1110.14 117.54 1108.16 117.941 1106.25 118.531C1105.34 118.812 1104.45 119.137 1103.57 119.505C1102.36 120.013 1101.18 120.602 1100.03 121.274C1099.11 121.811 1098.22 122.4 1097.34 123.042C1091.97 126.972 1087.85 132.474 1084.97 139.547V119.505H1015.67V147.505H1037.82V238.873H1015.67V266.872ZM1176.58 147.505H1198.72V238.873H1176.58V266.872H1270.61V238.873H1248.47V119.505H1176.58V147.505ZM1219.14 106.242H1222.01L1253.64 47.2954H1187.51L1219.14 106.242ZM1278.02 119.505V147.505H1295.85L1343.01 266.872H1392.47L1439.05 147.505H1456.88V119.505H1385.28V147.505H1408.86L1380.11 225.61H1379.24L1350.77 147.505H1370.33V119.505H1278.02ZM1470.67 109.779V178.157H1496.26V175.8C1496.55 173.341 1497.32 170.808 1498.57 168.201C1499.15 166.982 1499.84 165.748 1500.64 164.497C1501.54 163.078 1502.57 161.639 1503.74 160.179C1504.28 159.507 1504.83 158.848 1505.4 158.202C1506.33 157.129 1507.31 156.093 1508.32 155.093C1509.54 153.88 1510.81 152.721 1512.14 151.615L1512.3 151.488C1513.64 150.375 1515.04 149.317 1516.49 148.313L1516.62 148.225L1516.72 148.158L1516.86 148.064C1517.74 147.465 1518.64 146.886 1519.56 146.326C1519.98 146.074 1520.41 145.83 1520.83 145.595C1521.43 145.265 1522.02 144.951 1522.6 144.655C1523.3 144.303 1523.99 143.974 1524.67 143.67C1524.74 143.638 1524.81 143.607 1524.88 143.576L1525.04 143.504C1526.63 142.814 1528.18 142.253 1529.7 141.82C1530.08 141.711 1530.47 141.609 1530.85 141.516C1533 140.99 1535.08 140.726 1537.1 140.726C1538.1 140.726 1539.06 140.781 1539.97 140.892C1541.58 141.086 1543.04 141.451 1544.35 141.988C1546.27 142.773 1547.88 143.924 1549.17 145.442C1551.86 148.586 1553.2 153.793 1553.2 161.063C1553.2 162.34 1553.12 163.56 1552.97 164.723C1552.48 168.392 1551.21 171.495 1549.17 174.031C1548.02 175.492 1546.53 176.804 1544.71 177.968C1543.89 178.488 1543.01 178.979 1542.07 179.44C1541.48 179.728 1540.86 180.005 1540.21 180.271C1540.14 180.301 1540.06 180.332 1539.99 180.363C1539.89 180.4 1539.8 180.437 1539.71 180.474C1539.44 180.581 1539.16 180.686 1538.88 180.789C1538.65 180.874 1538.42 180.957 1538.18 181.039C1538 181.103 1537.81 181.167 1537.62 181.229C1537.55 181.254 1537.47 181.278 1537.4 181.303C1537.3 181.335 1537.2 181.368 1537.1 181.4C1535.55 181.908 1533.85 182.376 1531.97 182.803C1530.77 183.076 1529.5 183.333 1528.16 183.574L1528.14 183.578C1527.43 183.705 1526.7 183.828 1525.95 183.946C1522.66 184.465 1518.99 184.893 1514.96 185.231C1508.16 185.767 1501.93 186.635 1496.26 187.833C1495.77 187.938 1495.28 188.045 1494.79 188.155L1494.54 188.212C1494.38 188.249 1494.22 188.286 1494.06 188.323C1484.58 190.534 1476.79 193.723 1470.67 197.892C1470.38 198.09 1470.09 198.291 1469.81 198.494C1469.09 199.012 1468.39 199.544 1467.72 200.091C1466.16 201.36 1464.74 202.708 1463.46 204.137C1459.15 208.951 1456.4 214.676 1455.23 221.312C1454.79 223.796 1454.57 226.407 1454.57 229.147C1454.57 230.583 1454.63 231.986 1454.74 233.356C1455.58 243.795 1459.65 252.314 1466.93 258.915C1469.15 260.869 1471.61 262.561 1474.31 263.99C1475.02 264.363 1475.74 264.719 1476.48 265.056C1483.43 268.232 1491.85 269.82 1501.73 269.82C1504.18 269.82 1506.57 269.732 1508.89 269.556C1513.79 269.185 1518.4 268.423 1522.72 267.27C1523.2 267.142 1523.67 267.01 1524.14 266.872C1527.17 265.99 1530.05 264.909 1532.78 263.63C1538.62 260.83 1543.73 257.123 1548.12 252.509L1548.23 252.392C1550.57 249.914 1552.71 247.176 1554.64 244.178V266.872H1620.49V238.873H1602.08V176.979C1602.08 168.389 1600.97 160.657 1598.75 153.784C1596.55 146.959 1593.25 140.981 1588.86 135.848C1587.86 134.679 1586.81 133.555 1585.69 132.474C1582.28 129.16 1578.45 126.363 1574.19 124.084C1565.25 119.295 1554.45 116.792 1541.8 116.574C1541.19 116.563 1540.59 116.558 1539.97 116.558C1539.01 116.558 1538.05 116.572 1537.1 116.601C1533.72 116.702 1530.46 116.982 1527.32 117.442C1523.54 117.811 1519.93 118.439 1516.49 119.327C1516.27 119.386 1516.04 119.445 1515.82 119.505C1512.31 120.18 1508.64 120.791 1504.81 121.337L1504.39 121.397C1503.83 121.476 1503.27 121.553 1502.7 121.629C1500.51 121.924 1498.27 122.199 1495.98 122.453V109.779H1470.67ZM1621.49 193.062C1621.49 187.474 1621.97 182.113 1622.92 176.979C1624.45 168.617 1627.24 160.856 1631.26 153.695C1632.4 151.734 1633.61 149.847 1634.89 148.033C1637.11 144.893 1639.55 141.972 1642.21 139.27C1647.11 134.299 1652.76 130.069 1659.16 126.579C1660.67 125.728 1662.21 124.931 1663.77 124.189C1672.54 120.026 1682.08 117.567 1692.41 116.81C1694.71 116.642 1697.04 116.558 1699.41 116.558C1699.99 116.558 1700.56 116.563 1701.14 116.572C1706.64 116.657 1712.25 117.153 1717.97 118.057C1719.07 118.23 1720.16 118.418 1721.27 118.621C1724.24 119.13 1726.99 119.656 1729.5 120.202C1731.85 120.71 1733.99 121.235 1735.93 121.776C1736.74 121.999 1737.5 122.224 1738.23 122.453V109.779H1763.82L1763.54 182.284H1736.8V179.926C1736.36 176.092 1734.96 172.092 1732.58 167.926C1731.8 166.541 1730.9 165.137 1729.89 163.715C1728.99 162.44 1728.06 161.208 1727.09 160.021L1726.92 159.813L1726.75 159.607L1726.67 159.515C1723.98 156.286 1721.04 153.392 1717.84 150.833C1717.24 150.351 1716.63 149.881 1716.01 149.422C1715.94 149.372 1715.87 149.323 1715.8 149.274L1715.65 149.161C1710.34 145.306 1705.51 143.379 1701.14 143.379C1700.56 143.379 1699.98 143.399 1699.41 143.441C1694.58 143.791 1690.36 145.637 1686.76 148.979C1683.55 151.958 1680.89 156.125 1678.77 161.48C1678.69 161.684 1678.61 161.891 1678.53 162.098C1678.09 163.27 1677.67 164.497 1677.27 165.779C1676.87 167.18 1676.5 168.651 1676.17 170.191C1674.8 176.641 1674.11 184.307 1674.11 193.189C1674.11 202.019 1674.81 209.734 1676.22 216.334C1676.54 217.811 1676.89 219.233 1677.27 220.599C1677.69 221.929 1678.14 223.2 1678.62 224.412C1678.7 224.618 1678.78 224.822 1678.87 225.024C1680.97 230.143 1683.6 234.17 1686.76 237.104C1690.36 240.446 1694.58 242.292 1699.41 242.643C1699.98 242.684 1700.56 242.704 1701.14 242.704C1703.56 242.704 1706.1 242.229 1708.76 241.278C1711.38 240.344 1714.11 238.953 1716.95 237.104C1717.16 236.966 1717.36 236.826 1717.56 236.685C1718.17 236.261 1718.76 235.826 1719.35 235.381C1719.77 235.065 1720.18 234.745 1720.59 234.419C1723.14 232.389 1725.52 230.163 1727.73 227.741C1727.87 227.591 1728.01 227.441 1728.14 227.289C1729.46 225.818 1730.71 224.276 1731.91 222.662C1733.02 221.165 1734.01 219.688 1734.89 218.231C1735.6 217.068 1736.23 215.917 1736.8 214.779C1738.21 211.922 1739.17 209.146 1739.67 206.452V204.094H1766.41V276.599H1741.11V263.63C1739.64 264.176 1737.98 264.687 1736.13 265.161C1735.85 265.231 1735.58 265.299 1735.3 265.367C1731.98 266.172 1728.07 266.87 1723.57 267.462C1722.58 267.656 1721.58 267.837 1720.59 268.007C1717.56 268.526 1714.52 268.934 1711.49 269.23C1708.04 269.567 1704.59 269.76 1701.14 269.808C1700.56 269.816 1699.99 269.82 1699.41 269.82C1698.02 269.82 1696.65 269.792 1695.29 269.736C1684.85 269.308 1675.19 267.238 1666.31 263.527C1665.34 263.123 1664.38 262.7 1663.44 262.258C1661.99 261.582 1660.56 260.86 1659.16 260.094C1649.47 254.65 1641.51 247.577 1635.26 238.873C1635.15 238.724 1635.05 238.575 1634.94 238.426C1633.64 236.584 1632.41 234.669 1631.26 232.683C1624.75 220.894 1621.49 207.729 1621.49 193.189V193.062ZM1791.71 334.072H1817.59V320.514C1820.47 322.283 1824.01 323.756 1828.23 324.935C1831.16 325.837 1834.26 326.566 1837.53 327.123C1838.54 327.294 1839.56 327.449 1840.6 327.588C1844.31 328.249 1847.95 328.632 1851.52 328.737C1852.2 328.757 1852.87 328.767 1853.54 328.767C1857 328.767 1860.29 328.387 1863.41 327.628C1868.07 326.494 1872.35 324.516 1876.25 321.693C1877.12 321.063 1877.97 320.395 1878.78 319.688C1884.07 315.102 1888.22 308.893 1891.21 301.062C1892.29 298.377 1893.21 295.528 1893.97 292.514L1894.04 292.22C1895.67 285.67 1896.54 278.348 1896.66 270.253C1896.66 269.976 1896.66 269.697 1896.67 269.418C1896.67 269.228 1896.67 269.037 1896.67 268.846C1896.67 268.679 1896.67 268.513 1896.67 268.346V263.63C1896.67 262.21 1896.69 260.821 1896.74 259.466C1896.86 256.137 1897.12 253.005 1897.53 250.073C1898.3 245.946 1899.54 241.427 1901.27 236.515C1901.46 236.122 1901.56 235.827 1901.56 235.631C1901.56 235.238 1901.65 234.845 1901.85 234.452L1917.64 192.55L1917.65 192.53L1934.63 147.505H1954.18V119.505H1882.87V147.505H1906.73L1884.02 216.473C1883.44 218.241 1882.96 219.912 1882.58 221.483C1882.31 222.446 1882.04 223.505 1881.77 224.66C1881.66 225.155 1881.54 225.668 1881.43 226.199C1881.24 225.578 1881.03 224.903 1880.78 224.177C1880.44 223.141 1880.03 221.998 1879.57 220.749L1879.53 220.632C1878.99 219.19 1878.38 217.607 1877.69 215.883C1877.47 215.314 1877.25 214.752 1877.02 214.199L1877.01 214.165C1876.47 212.822 1875.93 211.529 1875.39 210.284C1874.62 208.319 1873.95 206.55 1873.38 204.978L1849.51 147.505H1866.48V119.505H1775.32V147.505H1792.58L1840.6 247.42L1840.73 247.715C1842.06 250.599 1843.31 253.335 1844.49 255.924L1844.91 256.852C1845.54 258.064 1846.14 259.243 1846.7 260.388C1847.11 261.2 1847.49 261.995 1847.86 262.773C1847.92 262.894 1847.97 263.015 1848.03 263.135C1848.34 263.804 1848.65 264.46 1848.94 265.104C1849.61 266.542 1850.25 267.908 1850.84 269.202L1851.05 269.647C1851.21 269.994 1851.37 270.336 1851.52 270.673C1852.04 271.804 1852.54 272.876 1852.99 273.888L1853.05 274.01C1855.3 278.972 1856.81 282.488 1857.56 284.557C1858.07 285.816 1858.48 286.964 1858.79 288C1858.85 288.168 1858.89 288.332 1858.94 288.494C1858.97 288.588 1858.99 288.681 1859.02 288.772C1859.39 290.139 1859.58 291.289 1859.58 292.22V292.514C1859.58 294.284 1859.21 295.817 1858.47 297.115C1858.15 297.691 1857.75 298.221 1857.28 298.704C1856.21 299.793 1854.97 300.504 1853.54 300.839C1852.9 300.987 1852.23 301.062 1851.52 301.062C1849.64 301.062 1847.64 300.648 1845.55 299.82C1845.41 299.767 1845.28 299.712 1845.14 299.656C1845.01 299.6 1844.88 299.543 1844.74 299.484C1844.62 299.431 1844.5 299.376 1844.38 299.32C1842.2 298.323 1839.92 296.899 1837.53 295.047L1837.44 294.977C1837.22 294.8 1836.99 294.619 1836.76 294.434L1836.57 294.283C1836.22 293.997 1835.87 293.707 1835.52 293.413C1835.3 293.23 1835.09 293.045 1834.87 292.858C1834.81 292.806 1834.76 292.754 1834.7 292.701C1834.63 292.639 1834.56 292.577 1834.49 292.514C1834.38 292.417 1834.27 292.318 1834.16 292.22C1829.81 288.279 1826.02 283.563 1822.77 278.072C1822.66 277.887 1822.54 277.701 1822.43 277.516C1822.36 277.39 1822.28 277.264 1822.21 277.138C1821.76 276.358 1821.33 275.583 1820.94 274.814C1820.54 274.04 1820.17 273.272 1819.83 272.511C1819.51 271.788 1819.22 271.07 1818.95 270.359C1818.77 269.871 1818.6 269.385 1818.44 268.902C1817.49 265.967 1817.02 263.129 1817.02 260.388V247.715H1791.71V334.072ZM1551.87 217.519C1551.4 218.835 1550.86 220.119 1550.27 221.371C1550.18 221.559 1550.08 221.747 1549.99 221.934C1549.89 222.137 1549.79 222.34 1549.68 222.542C1549.61 222.681 1549.54 222.819 1549.46 222.957C1548.9 224.033 1548.31 225.07 1547.69 226.067C1545.77 229.133 1543.55 231.827 1541.03 234.151C1540.8 234.367 1540.56 234.581 1540.32 234.791L1540.2 234.893C1539.36 235.626 1538.48 236.318 1537.57 236.972L1537.51 237.014L1537.38 237.104C1532.59 240.445 1527.7 242.115 1522.72 242.115H1522.72C1522.63 242.115 1522.55 242.114 1522.46 242.113C1517.79 242.05 1514.04 240.283 1511.22 236.81C1510.09 235.419 1509.18 233.861 1508.49 232.136C1507.51 229.674 1506.99 226.87 1506.91 223.726C1506.91 223.472 1506.9 223.216 1506.9 222.957L1506.9 222.832L1506.91 222.737C1506.95 215.965 1508.96 210.635 1512.94 206.747C1513.49 206.183 1514.08 205.645 1514.7 205.133C1514.74 205.098 1514.79 205.062 1514.83 205.027L1514.9 204.971L1514.96 204.924C1515.06 204.838 1515.17 204.753 1515.28 204.669C1515.65 204.384 1516.03 204.108 1516.42 203.84L1516.51 203.783C1517.27 203.265 1518.08 202.78 1518.94 202.326C1520.11 201.7 1521.37 201.134 1522.72 200.629C1525.13 199.723 1527.82 199.011 1530.77 198.494C1531.46 198.372 1532.15 198.241 1532.81 198.103C1534.7 197.713 1536.48 197.26 1538.16 196.747C1539.36 196.378 1540.51 195.978 1541.6 195.545L1541.74 195.489C1542.84 195.049 1543.88 194.577 1544.86 194.073C1548.7 191.912 1551.86 189.456 1554.35 186.705V202.326C1554.35 204.941 1554.16 207.465 1553.78 209.897C1553.72 210.296 1553.65 210.692 1553.58 211.085C1553.17 213.308 1552.6 215.453 1551.87 217.519ZM809.549 409.845H819.655C831.133 410.335 841.688 412.516 851.321 416.388C851.452 416.44 851.582 416.493 851.713 416.546C851.798 416.581 851.883 416.616 851.969 416.651C852.043 416.682 852.117 416.712 852.191 416.743C853.125 417.131 854.05 417.534 854.967 417.954C855.985 418.42 856.992 418.906 857.988 419.412C866.999 423.987 874.584 429.84 880.744 436.972C881.736 438.121 882.691 439.304 883.609 440.519C885.026 442.394 886.355 444.349 887.596 446.382C888.027 447.089 888.446 447.803 888.851 448.522C895.05 459.537 898.149 472.016 898.149 485.958C898.149 486.061 898.149 486.163 898.149 486.266C898.109 497.601 895.902 507.997 891.526 517.457C890.291 520.126 888.883 522.721 887.303 525.241C885.443 528.288 883.386 531.165 881.131 533.871C874.853 541.404 867.041 547.615 857.695 552.504C855.869 553.431 854.009 554.291 852.115 555.085C851.828 555.205 851.54 555.324 851.25 555.442C840.191 559.933 827.975 562.178 814.602 562.178C800.989 562.178 788.652 559.961 777.592 555.526C777.167 555.355 776.744 555.181 776.322 555.004C776.202 554.953 776.081 554.903 775.961 554.851C774.251 554.123 772.571 553.341 770.923 552.504C769.426 551.732 767.968 550.924 766.549 550.079C759.443 545.847 753.32 540.702 748.181 534.644C747.286 533.589 746.421 532.507 745.586 531.397C744.175 529.522 742.849 527.567 741.609 525.534C734.698 514.207 731.181 501.277 731.059 486.744C731.057 486.483 731.055 486.221 731.055 485.958C731.055 481.927 731.315 478.018 731.833 474.232C733.224 464.067 736.483 454.784 741.609 446.382C742.312 445.23 743.043 444.103 743.803 443.002C745.143 441.058 746.571 439.194 748.088 437.408C754.313 430.079 762.023 424.08 771.217 419.412C773.041 418.486 774.901 417.626 776.798 416.833L776.919 416.782C786.811 412.664 797.688 410.351 809.549 409.845ZM642.442 409.845H650.155L650.292 409.852L650.378 409.857C659.983 410.426 668.385 413.025 675.584 417.653C677.805 419.028 679.89 420.574 681.839 422.292C686.851 426.711 690.964 432.265 694.179 438.954C694.253 439.109 694.327 439.265 694.401 439.421C694.44 439.505 694.48 439.59 694.519 439.675C694.559 439.761 694.599 439.847 694.639 439.933C699.134 449.705 701.381 461.138 701.381 474.232V531.397H720.729V559.247H632.199V531.397H650.374V478.043C650.374 476.218 650.336 474.459 650.261 472.768C650.242 472.337 650.221 471.911 650.197 471.489C649.843 465.246 648.958 459.947 647.543 455.592C647.158 454.407 646.733 453.292 646.27 452.246C645.903 451.421 645.512 450.638 645.097 449.9C642.659 445.565 639.563 442.733 635.811 441.402C635.719 441.37 635.627 441.338 635.535 441.308C635.497 441.295 635.459 441.283 635.421 441.27C635.391 441.261 635.362 441.252 635.333 441.242C633.807 440.76 632.176 440.519 630.44 440.519C627.459 440.519 624.716 441.229 622.208 442.65C620.77 443.465 619.41 444.513 618.128 445.796C614.61 449.118 611.874 453.906 609.919 460.16C608.994 463.449 608.313 467.009 607.874 470.839C607.695 472.4 607.557 474.007 607.459 475.658C607.418 476.352 607.384 477.053 607.357 477.763C607.353 477.856 607.35 477.949 607.347 478.043C607.303 479.289 607.281 480.559 607.281 481.854V531.397H624.87V559.247H533.994V531.397H556.567V440.519H533.994V412.669H604.643V432.018C604.704 431.916 604.766 431.815 604.828 431.714C609.293 424.439 614.899 418.97 621.645 415.308C623.577 414.288 625.596 413.409 627.705 412.669C628.6 412.355 629.512 412.066 630.44 411.802C634.181 410.739 638.181 410.086 642.442 409.845ZM789.924 456.261C792.181 450.061 795.13 445.4 798.772 442.278C803.072 438.565 808.349 436.708 814.602 436.708C820.661 436.708 825.84 438.565 830.139 442.278C834.011 445.446 837.011 450.199 839.14 456.538C839.375 457.237 839.599 457.956 839.813 458.695C840.157 459.851 840.473 461.055 840.762 462.307C842.279 468.88 843.038 476.764 843.038 485.958C843.038 494.97 842.309 502.723 840.851 509.217C840.539 510.61 840.193 511.944 839.813 513.221C839.56 514.072 839.292 514.898 839.01 515.7C838.934 515.915 838.857 516.129 838.779 516.34C836.677 522.046 833.797 526.479 830.139 529.638C825.84 533.156 820.661 534.915 814.602 534.915C808.349 534.915 803.072 533.156 798.772 529.638C795.137 526.349 792.192 521.679 789.936 515.63C789.895 515.519 789.854 515.408 789.813 515.296C789.566 514.621 789.328 513.93 789.099 513.221C788.746 512.034 788.422 510.797 788.127 509.51C786.625 502.957 785.874 495.106 785.874 485.958C785.874 476.873 786.615 469.067 788.096 462.54C788.399 461.205 788.733 459.923 789.099 458.695C789.362 457.859 789.638 457.047 789.924 456.261ZM795.68 471.052C795.653 470.986 795.641 470.95 795.641 470.949C795.642 470.948 795.656 470.981 795.68 471.052ZM795.776 500.524C795.767 500.549 795.763 500.561 795.762 500.56C795.762 500.56 795.767 500.548 795.776 500.524ZM1003.98 559.247H950.622L917.79 440.519H900.787V412.669H978.765V440.519H970.556L990.784 523.482H991.663L1006.91 467.196L998.112 440.519H986.093V412.669H1068.76V440.519H1055.28L1078.14 523.775H1079.31L1099.54 440.519H1084.3V412.669H1146.44V440.519H1129.15L1096.02 559.247H1042.08L1035.76 535.425L1035.76 535.416L1023.32 488.596L1003.98 559.247ZM81.2795 415.595C81.2795 414.658 82.0393 413.898 82.9766 413.898H465.98C466.917 413.898 467.677 414.658 467.677 415.595V559.568C467.677 560.505 466.917 561.265 465.98 561.265H82.9766C82.0393 561.265 81.2795 560.505 81.2795 559.568V415.595Z" fill="#1B1819"/>
</svg>
