<svg width="2000" height="100" viewBox="0 0 2000 100" fill="none" xmlns="http://www.w3.org/2000/svg">
<rect width="2000" height="100" fill="black"/>
<path d="M464.042 55.8334H467.136V43.3758H464.042V39.5581H473.727V42.2104C474.343 41.1923 475.12 40.4288 476.058 39.9198C477.022 39.4108 478.147 39.1562 479.433 39.1562C480.987 39.1562 482.327 39.5179 483.452 40.2413C484.577 40.9378 485.448 41.9559 486.064 43.2954C486.68 44.6349 486.988 46.2022 486.988 47.9971V55.8334H489.64V59.6511H477.504V55.8334H479.996V48.5196C479.996 46.805 479.755 45.519 479.272 44.6617C478.79 43.8044 478.12 43.3758 477.263 43.3758C476.62 43.3758 476.058 43.6169 475.575 44.0991C475.093 44.5546 474.718 45.2109 474.45 46.0682C474.209 46.9255 474.088 47.9168 474.088 49.042V55.8334H476.5V59.6511H464.042V55.8334Z" fill="white"/>
<path d="M502.509 60.0529C500.259 60.0529 498.263 59.6109 496.521 58.7268C494.807 57.8427 493.467 56.6103 492.503 55.0297C491.538 53.449 491.056 51.6407 491.056 49.6046C491.056 47.5685 491.538 45.7601 492.503 44.1795C493.467 42.5988 494.82 41.3665 496.561 40.4824C498.303 39.5983 500.285 39.1562 502.509 39.1562C504.733 39.1562 506.715 39.5983 508.457 40.4824C510.198 41.3665 511.551 42.5988 512.515 44.1795C513.48 45.7601 513.962 47.5685 513.962 49.6046C513.962 51.6139 513.466 53.4088 512.475 54.9895C511.511 56.5701 510.158 57.8159 508.416 58.7268C506.675 59.6109 504.706 60.0529 502.509 60.0529ZM502.509 56.3156C503.339 56.3156 504.049 56.0745 504.639 55.5923C505.228 55.0833 505.67 54.3331 505.965 53.3419C506.26 52.3506 506.407 51.1049 506.407 49.6046C506.407 48.1043 506.26 46.8585 505.965 45.8673C505.67 44.8493 505.228 44.0991 504.639 43.6169C504.049 43.1079 503.339 42.8534 502.509 42.8534C501.652 42.8534 500.928 43.1079 500.339 43.6169C499.776 44.0991 499.334 44.8493 499.013 45.8673C498.718 46.8585 498.571 48.1043 498.571 49.6046C498.571 51.1049 498.718 52.3506 499.013 53.3419C499.334 54.3331 499.776 55.0833 500.339 55.5923C500.928 56.0745 501.652 56.3156 502.509 56.3156Z" fill="white"/>
<path d="M516.654 43.3758H514.324V39.5581H525.013V43.3758H523.888L526.661 54.7484H526.781L528.871 47.0327L527.665 43.3758H526.018V39.5581H537.35V43.3758H535.502L538.636 54.7886H538.797L541.57 43.3758H539.48V39.5581H547.999V43.3758H545.628L541.087 59.6511H533.693L531.121 49.9663L528.469 59.6511H521.155L516.654 43.3758Z" fill="white"/>
<path d="M130.286 43.9388H128V40.1006H138.485V43.9388H137.382L140.102 55.3727H140.22L142.27 47.6154L141.087 43.9388H139.471V40.1006H150.587V43.9388H148.774L151.848 55.4131H152.006L154.726 43.9388H152.676V40.1006H161.033V43.9388H158.707L154.253 60.3018H147L144.477 50.5648L141.875 60.3018H134.701L130.286 43.9388Z" fill="white"/>
<path d="M177.66 59.817C177.056 60.0325 176.267 60.221 175.295 60.3826C174.743 60.4634 174.178 60.5308 173.6 60.5846C173.048 60.6654 172.483 60.7058 171.905 60.7058C169.881 60.7058 168.068 60.2749 166.465 59.413C164.862 58.551 163.601 57.339 162.681 55.7767C161.787 54.2145 161.341 52.4099 161.341 50.3628C161.341 48.2619 161.787 46.4034 162.681 44.7873C163.601 43.1712 164.875 41.9187 166.505 41.0299C168.134 40.141 170 39.6966 172.102 39.6966C174.204 39.6966 176.044 40.141 177.621 41.0299C179.224 41.8918 180.459 43.1173 181.326 44.7065C182.193 46.2687 182.64 48.0868 182.666 50.1608C182.666 50.3493 182.653 50.5514 182.627 50.7668C182.627 50.9554 182.614 51.1574 182.587 51.3729H168.397C168.502 52.6927 168.712 53.8105 169.027 54.7263C169.369 55.6421 169.803 56.3289 170.328 56.7868C170.854 57.2447 171.458 57.4736 172.141 57.4736C172.746 57.4736 173.416 57.2447 174.152 56.7868C174.914 56.3289 175.571 55.7902 176.123 55.1707C176.701 54.5512 177.056 53.999 177.187 53.5142V53.2718H181.168V61.6351H177.66V59.817ZM175.61 48.9487C175.479 47.575 175.256 46.4572 174.94 45.5953C174.625 44.7065 174.218 44.0466 173.718 43.6156C173.219 43.1847 172.641 42.9692 171.984 42.9692C171.327 42.9692 170.749 43.1981 170.249 43.656C169.75 44.087 169.343 44.7469 169.027 45.6357C168.738 46.5246 168.541 47.6289 168.436 48.9487H175.61Z" fill="white"/>
<path d="M198.526 60.7058C197.265 60.7058 196.161 60.4634 195.215 59.9786C194.269 59.4668 193.467 58.7126 192.81 57.7161V60.3018H186.345V35.8584H183.192V32.0201H193.126V42.4035C193.756 41.5147 194.518 40.8413 195.412 40.3834C196.332 39.9255 197.37 39.6966 198.526 39.6966C200.234 39.6966 201.771 40.141 203.138 41.0299C204.504 41.8918 205.569 43.1173 206.331 44.7065C207.093 46.2956 207.474 48.1272 207.474 50.2012C207.474 52.2752 207.093 54.1068 206.331 55.6959C205.569 57.2851 204.504 58.5241 203.138 59.413C201.798 60.2749 200.26 60.7058 198.526 60.7058ZM196.634 56.5848C197.343 56.5848 197.948 56.3693 198.447 55.9383C198.973 55.4805 199.38 54.7801 199.669 53.8374C199.958 52.8947 200.103 51.6826 200.103 50.2012C200.103 48.7198 199.958 47.5077 199.669 46.565C199.38 45.5953 198.973 44.895 198.447 44.4641C197.948 44.0331 197.343 43.8176 196.634 43.8176C195.898 43.8176 195.228 44.1004 194.623 44.6661C194.045 45.2048 193.585 45.959 193.244 46.9286C192.928 47.8983 192.771 48.9891 192.771 50.2012C192.771 51.3863 192.928 52.4637 193.244 53.4334C193.585 54.4031 194.045 55.1707 194.623 55.7363C195.228 56.302 195.898 56.5848 196.634 56.5848Z" fill="white"/>
<path d="M210.923 49.1507H214.629V49.3528C214.629 50.3763 214.957 51.4941 215.614 52.7062C216.297 53.9182 217.164 54.9418 218.216 55.7767C219.293 56.5848 220.371 56.9888 221.448 56.9888C222.236 56.9888 222.893 56.7733 223.419 56.3424C223.945 55.8845 224.326 55.2784 224.562 54.5243C224.825 53.7431 224.956 52.8543 224.956 51.8577C224.956 50.7803 224.812 49.878 224.523 49.1507C224.234 48.4235 223.839 47.8848 223.34 47.5346C222.867 47.1576 222.328 46.969 221.724 46.969C221.277 46.969 220.817 47.0633 220.344 47.2518C219.898 47.4404 219.477 47.7097 219.083 48.0599L218.689 48.4235L216.797 45.8377L224.838 38.8481H217.94C217.256 38.8481 216.731 38.8885 216.363 38.9693C216.021 39.0501 215.759 39.1983 215.575 39.4138C215.417 39.6292 215.338 39.9659 215.338 40.4238V41.7975H211.593V30H215.377V32.0201H232.604V35.8179L223.143 44.5449C223.485 44.4102 223.866 44.3159 224.286 44.2621C224.707 44.1812 225.101 44.1408 225.469 44.1408C226.888 44.1408 228.162 44.4641 229.292 45.1105C230.449 45.73 231.355 46.6189 232.012 47.7771C232.669 48.9083 232.998 50.2147 232.998 51.6961C232.998 53.4199 232.564 54.9687 231.697 56.3424C230.83 57.7161 229.581 58.8069 227.952 59.615C226.323 60.3961 224.391 60.7866 222.158 60.7866C221.317 60.7866 220.476 60.6924 219.635 60.5038C218.794 60.3153 218.045 60.0594 217.388 59.7362C216.967 59.6015 216.521 59.4668 216.048 59.3321C215.601 59.1705 215.154 59.0359 214.707 58.9281V61.4735H210.923V49.1507Z" fill="white"/>
<path d="M235.16 64.5441H238.195V43.9388H235.16V40.1006H244.66V42.646C245.317 41.6763 246.119 40.9491 247.065 40.4642C248.037 39.9525 249.154 39.6966 250.415 39.6966C252.123 39.6966 253.661 40.1275 255.027 40.9895C256.394 41.8514 257.458 43.0769 258.22 44.6661C258.982 46.2552 259.363 48.1003 259.363 50.2012C259.363 52.2752 258.969 54.1068 258.181 55.6959C257.419 57.2851 256.354 58.5241 254.988 59.413C253.648 60.2749 252.123 60.7058 250.415 60.7058C249.233 60.7058 248.195 60.4769 247.301 60.019C246.408 59.5611 245.646 58.8743 245.015 57.9585V64.7461H249.942V68.3823H235.16V64.5441ZM248.523 56.5848C249.206 56.5848 249.811 56.3693 250.336 55.9383C250.862 55.4805 251.256 54.7801 251.519 53.8374C251.808 52.8947 251.953 51.6826 251.953 50.2012C251.953 48.7198 251.808 47.5077 251.519 46.565C251.256 45.5953 250.862 44.895 250.336 44.4641C249.811 44.0331 249.206 43.8176 248.523 43.8176C247.761 43.8176 247.078 44.1004 246.473 44.6661C245.895 45.2048 245.449 45.959 245.133 46.9286C244.818 47.8983 244.66 48.9891 244.66 50.2012C244.66 51.3863 244.818 52.4637 245.133 53.4334C245.449 54.4031 245.895 55.1707 246.473 55.7363C247.078 56.302 247.761 56.5848 248.523 56.5848Z" fill="white"/>
<path d="M260.952 56.4636H263.987V43.9388H260.952V40.1006H270.452V42.848C270.846 41.8783 271.411 41.1241 272.147 40.5854C272.883 40.0467 273.724 39.7774 274.67 39.7774C275.064 39.7774 275.524 39.8582 276.049 40.0198C276.207 40.0737 276.365 40.1275 276.522 40.1814C276.68 40.2353 276.825 40.2891 276.956 40.343V38.4441H280.464V49.1507H277.074V48.5851C277.074 47.9387 276.864 47.2788 276.443 46.6054C276.049 45.9051 275.55 45.326 274.946 44.8681C274.367 44.4102 273.842 44.1812 273.369 44.1812C272.87 44.1812 272.423 44.3967 272.029 44.8277C271.661 45.2317 271.358 45.8243 271.122 46.6054C270.912 47.3596 270.807 48.2754 270.807 49.3528V56.4636H275.616V60.3018H260.952V56.4636Z" fill="white"/>
<path d="M283.009 56.4636H286.045V43.9388H283.009V40.1006H292.864V56.4636H295.899V60.3018H283.009V56.4636ZM284.507 30.202H293.574L289.238 38.2825H288.844L284.507 30.202Z" fill="white"/>
<path d="M299.36 43.9388H296.916V40.1006H309.57V43.9388H306.889L310.792 54.6455H310.91L314.852 43.9388H311.619V40.1006H321.435V43.9388H318.991L312.605 60.3018H305.825L299.36 43.9388Z" fill="white"/>
<path d="M327.582 60.7058C325.533 60.7058 323.943 60.2075 322.813 59.2109C321.683 58.1874 321.118 56.8272 321.118 55.1303C321.118 53.3257 321.814 51.925 323.207 50.9284C324.6 49.9319 326.663 49.3258 329.396 49.1103C330.683 49.0026 331.695 48.8275 332.431 48.5851C333.193 48.3427 333.745 48.006 334.087 47.5751C334.454 47.1172 334.638 46.5246 334.638 45.7973C334.638 44.8007 334.454 44.087 334.087 43.656C333.719 43.2251 333.167 43.0096 332.431 43.0096C331.695 43.0096 330.894 43.2655 330.026 43.7772C329.185 44.289 328.463 44.922 327.858 45.6761C327.254 46.4303 326.912 47.1441 326.833 47.8175V48.1407H323.325V38.7673H326.794V40.5046C327.766 40.3969 328.673 40.2622 329.514 40.1006C330.013 39.9659 330.539 39.8717 331.091 39.8178C331.643 39.737 332.221 39.6966 332.825 39.6966C335.506 39.6966 337.595 40.4238 339.093 41.8783C340.591 43.3328 341.34 45.3664 341.34 47.9791V56.4636H343.862V60.3018H334.835V57.1908C334.073 58.376 333.075 59.2648 331.84 59.8574C330.631 60.423 329.212 60.7058 327.582 60.7058ZM330.46 56.908C331.143 56.908 331.813 56.6791 332.47 56.2212C333.154 55.7363 333.705 55.0899 334.126 54.2818C334.573 53.4469 334.796 52.5041 334.796 51.4537V49.3124C334.454 49.6894 334.021 50.0261 333.495 50.3224C332.97 50.5918 332.326 50.7938 331.564 50.9284C330.486 51.117 329.672 51.4941 329.12 52.0597C328.568 52.5984 328.292 53.3391 328.292 54.2818C328.292 55.063 328.489 55.6959 328.883 56.1808C329.277 56.6656 329.803 56.908 330.46 56.908Z" fill="white"/>
<path d="M360.398 59.8574C359.82 60.0729 359.018 60.2479 357.993 60.3826C357.441 60.4904 356.889 60.5712 356.338 60.625C355.786 60.6789 355.234 60.7058 354.682 60.7058C352.632 60.7058 350.793 60.2614 349.163 59.3726C347.534 58.4568 346.259 57.2043 345.34 55.6151C344.446 53.999 343.999 52.1944 343.999 50.2012C343.999 48.1811 344.446 46.3764 345.34 44.7873C346.259 43.1981 347.534 41.9591 349.163 41.0703C350.793 40.1545 352.632 39.6966 354.682 39.6966C355.654 39.6966 356.653 39.7909 357.678 39.9794C358.624 40.141 359.399 40.3161 360.004 40.5046V38.7673H363.512L363.472 48.7063H359.806V48.3831C359.728 47.6828 359.412 46.9421 358.86 46.161C358.308 45.3798 357.665 44.7199 356.929 44.1812C356.193 43.6425 355.523 43.3732 354.918 43.3732C354.156 43.3732 353.499 43.6291 352.948 44.1408C352.396 44.6526 351.962 45.4203 351.647 46.4438C351.358 47.4404 351.213 48.6928 351.213 50.2012C351.213 51.6826 351.358 52.9351 351.647 53.9586C351.962 54.9552 352.396 55.7094 352.948 56.2212C353.499 56.7329 354.156 56.9888 354.918 56.9888C355.575 56.9888 356.298 56.7329 357.087 56.2212C357.875 55.6825 358.558 55.0226 359.136 54.2414C359.714 53.4603 360.069 52.7196 360.201 52.0193V51.6961H363.867V61.6351H360.398V59.8574Z" fill="white"/>
<path d="M367.335 57.6756H370.804V59.413C370.804 60.1671 371.066 60.9752 371.592 61.8371C372.118 62.726 372.748 63.4667 373.484 64.0592C374.246 64.6787 374.929 64.9885 375.534 64.9885C375.849 64.9885 376.112 64.8807 376.322 64.6653C376.533 64.4498 376.638 64.167 376.638 63.8168V63.7764C376.638 63.534 376.546 63.1838 376.362 62.726C376.204 62.295 375.81 61.4061 375.179 60.0594C375.021 59.7092 374.838 59.3321 374.627 58.9281C374.443 58.5241 374.246 58.0931 374.036 57.6353L367.453 43.9388H365.088V40.1006H377.584V43.9388H375.258L378.53 51.8173C378.609 52.0328 378.701 52.2752 378.806 52.5445C378.911 52.787 379.016 53.0428 379.121 53.3122C379.358 53.9048 379.528 54.3761 379.633 54.7263C379.686 54.4839 379.739 54.2684 379.791 54.0798C379.844 53.8644 379.909 53.6354 379.988 53.393L383.102 43.9388H379.831V40.1006H389.606V43.9388H386.926L382.432 55.8575C382.406 55.9114 382.393 55.9653 382.393 56.0191C382.393 56.0461 382.38 56.0865 382.353 56.1404C382.117 56.8137 381.946 57.4332 381.841 57.9989C381.762 58.5645 381.723 59.184 381.723 59.8574V60.5038C381.723 62.2546 381.473 63.7495 380.974 64.9885C380.501 66.2275 379.817 67.1702 378.924 67.8167C378.03 68.4631 376.992 68.7863 375.81 68.7863C375.232 68.7863 374.64 68.7324 374.036 68.6247C373.432 68.5439 372.867 68.4227 372.341 68.2611C371.763 68.0995 371.277 67.8975 370.883 67.655V69.5136H367.335V57.6756Z" fill="white"/>
<path d="M400.07 41.7266C400.07 40.622 400.966 39.7266 402.07 39.7266H451.039C452.144 39.7266 453.039 40.622 453.039 41.7266V57.9278C453.039 59.0323 452.144 59.9278 451.039 59.9278H402.07C400.966 59.9278 400.07 59.0323 400.07 57.9278V41.7266Z" fill="white"/>
<path d="M1126.04 55.8334H1129.14V43.3758H1126.04V39.5581H1135.73V42.2104C1136.34 41.1923 1137.12 40.4288 1138.06 39.9198C1139.02 39.4108 1140.15 39.1562 1141.43 39.1562C1142.99 39.1562 1144.33 39.5179 1145.45 40.2413C1146.58 40.9378 1147.45 41.9559 1148.06 43.2954C1148.68 44.6349 1148.99 46.2022 1148.99 47.9971V55.8334H1151.64V59.6511H1139.5V55.8334H1142V48.5196C1142 46.805 1141.75 45.519 1141.27 44.6617C1140.79 43.8044 1140.12 43.3758 1139.26 43.3758C1138.62 43.3758 1138.06 43.6169 1137.58 44.0991C1137.09 44.5546 1136.72 45.2109 1136.45 46.0682C1136.21 46.9255 1136.09 47.9168 1136.09 49.042V55.8334H1138.5V59.6511H1126.04V55.8334Z" fill="white"/>
<path d="M1164.51 60.0529C1162.26 60.0529 1160.26 59.6109 1158.52 58.7268C1156.81 57.8427 1155.47 56.6103 1154.5 55.0297C1153.54 53.449 1153.06 51.6407 1153.06 49.6046C1153.06 47.5685 1153.54 45.7601 1154.5 44.1795C1155.47 42.5988 1156.82 41.3665 1158.56 40.4824C1160.3 39.5983 1162.29 39.1562 1164.51 39.1562C1166.73 39.1562 1168.72 39.5983 1170.46 40.4824C1172.2 41.3665 1173.55 42.5988 1174.52 44.1795C1175.48 45.7601 1175.96 47.5685 1175.96 49.6046C1175.96 51.6139 1175.47 53.4088 1174.48 54.9895C1173.51 56.5701 1172.16 57.8159 1170.42 58.7268C1168.67 59.6109 1166.71 60.0529 1164.51 60.0529ZM1164.51 56.3156C1165.34 56.3156 1166.05 56.0745 1166.64 55.5923C1167.23 55.0833 1167.67 54.3331 1167.96 53.3419C1168.26 52.3506 1168.41 51.1049 1168.41 49.6046C1168.41 48.1043 1168.26 46.8585 1167.96 45.8673C1167.67 44.8493 1167.23 44.0991 1166.64 43.6169C1166.05 43.1079 1165.34 42.8534 1164.51 42.8534C1163.65 42.8534 1162.93 43.1079 1162.34 43.6169C1161.78 44.0991 1161.33 44.8493 1161.01 45.8673C1160.72 46.8585 1160.57 48.1043 1160.57 49.6046C1160.57 51.1049 1160.72 52.3506 1161.01 53.3419C1161.33 54.3331 1161.78 55.0833 1162.34 55.5923C1162.93 56.0745 1163.65 56.3156 1164.51 56.3156Z" fill="white"/>
<path d="M1178.65 43.3758H1176.32V39.5581H1187.01V43.3758H1185.89L1188.66 54.7484H1188.78L1190.87 47.0327L1189.67 43.3758H1188.02V39.5581H1199.35V43.3758H1197.5L1200.64 54.7886H1200.8L1203.57 43.3758H1201.48V39.5581H1210V43.3758H1207.63L1203.09 59.6511H1195.69L1193.12 49.9663L1190.47 59.6511H1183.16L1178.65 43.3758Z" fill="white"/>
<path d="M792.286 43.9388H790V40.1006H800.485V43.9388H799.382L802.102 55.3727H802.22L804.27 47.6154L803.087 43.9388H801.471V40.1006H812.587V43.9388H810.774L813.848 55.4131H814.006L816.726 43.9388H814.676V40.1006H823.033V43.9388H820.707L816.253 60.3018H809L806.477 50.5648L803.875 60.3018H796.701L792.286 43.9388Z" fill="white"/>
<path d="M839.66 59.817C839.056 60.0325 838.267 60.221 837.295 60.3826C836.743 60.4634 836.178 60.5308 835.6 60.5846C835.048 60.6654 834.483 60.7058 833.905 60.7058C831.881 60.7058 830.068 60.2749 828.465 59.413C826.862 58.551 825.601 57.339 824.681 55.7767C823.787 54.2145 823.341 52.4099 823.341 50.3628C823.341 48.2619 823.787 46.4034 824.681 44.7873C825.601 43.1712 826.875 41.9187 828.505 41.0299C830.134 40.141 832 39.6966 834.102 39.6966C836.204 39.6966 838.044 40.141 839.621 41.0299C841.224 41.8918 842.459 43.1173 843.326 44.7065C844.193 46.2687 844.64 48.0868 844.666 50.1608C844.666 50.3493 844.653 50.5514 844.627 50.7668C844.627 50.9554 844.614 51.1574 844.587 51.3729H830.397C830.502 52.6927 830.712 53.8105 831.027 54.7263C831.369 55.6421 831.803 56.3289 832.328 56.7868C832.854 57.2447 833.458 57.4736 834.141 57.4736C834.746 57.4736 835.416 57.2447 836.152 56.7868C836.914 56.3289 837.571 55.7902 838.123 55.1707C838.701 54.5512 839.056 53.999 839.187 53.5142V53.2718H843.168V61.6351H839.66V59.817ZM837.61 48.9487C837.479 47.575 837.256 46.4572 836.94 45.5953C836.625 44.7065 836.218 44.0466 835.718 43.6156C835.219 43.1847 834.641 42.9692 833.984 42.9692C833.327 42.9692 832.749 43.1981 832.249 43.656C831.75 44.087 831.343 44.7469 831.027 45.6357C830.738 46.5246 830.541 47.6289 830.436 48.9487H837.61Z" fill="white"/>
<path d="M860.526 60.7058C859.265 60.7058 858.161 60.4634 857.215 59.9786C856.269 59.4668 855.467 58.7126 854.81 57.7161V60.3018H848.345V35.8584H845.192V32.0201H855.126V42.4035C855.756 41.5147 856.518 40.8413 857.412 40.3834C858.332 39.9255 859.37 39.6966 860.526 39.6966C862.234 39.6966 863.771 40.141 865.138 41.0299C866.504 41.8918 867.569 43.1173 868.331 44.7065C869.093 46.2956 869.474 48.1272 869.474 50.2012C869.474 52.2752 869.093 54.1068 868.331 55.6959C867.569 57.2851 866.504 58.5241 865.138 59.413C863.798 60.2749 862.26 60.7058 860.526 60.7058ZM858.634 56.5848C859.343 56.5848 859.948 56.3693 860.447 55.9383C860.973 55.4805 861.38 54.7801 861.669 53.8374C861.958 52.8947 862.103 51.6826 862.103 50.2012C862.103 48.7198 861.958 47.5077 861.669 46.565C861.38 45.5953 860.973 44.895 860.447 44.4641C859.948 44.0331 859.343 43.8176 858.634 43.8176C857.898 43.8176 857.228 44.1004 856.623 44.6661C856.045 45.2048 855.585 45.959 855.244 46.9286C854.928 47.8983 854.771 48.9891 854.771 50.2012C854.771 51.3863 854.928 52.4637 855.244 53.4334C855.585 54.4031 856.045 55.1707 856.623 55.7363C857.228 56.302 857.898 56.5848 858.634 56.5848Z" fill="white"/>
<path d="M872.923 49.1507H876.629V49.3528C876.629 50.3763 876.957 51.4941 877.614 52.7062C878.297 53.9182 879.164 54.9418 880.216 55.7767C881.293 56.5848 882.371 56.9888 883.448 56.9888C884.236 56.9888 884.893 56.7733 885.419 56.3424C885.945 55.8845 886.326 55.2784 886.562 54.5243C886.825 53.7431 886.956 52.8543 886.956 51.8577C886.956 50.7803 886.812 49.878 886.523 49.1507C886.234 48.4235 885.839 47.8848 885.34 47.5346C884.867 47.1576 884.328 46.969 883.724 46.969C883.277 46.969 882.817 47.0633 882.344 47.2518C881.898 47.4404 881.477 47.7097 881.083 48.0599L880.689 48.4235L878.797 45.8377L886.838 38.8481H879.94C879.256 38.8481 878.731 38.8885 878.363 38.9693C878.021 39.0501 877.759 39.1983 877.575 39.4138C877.417 39.6292 877.338 39.9659 877.338 40.4238V41.7975H873.593V30H877.377V32.0201H894.604V35.8179L885.143 44.5449C885.485 44.4102 885.866 44.3159 886.286 44.2621C886.707 44.1812 887.101 44.1408 887.469 44.1408C888.888 44.1408 890.162 44.4641 891.292 45.1105C892.449 45.73 893.355 46.6189 894.012 47.7771C894.669 48.9083 894.998 50.2147 894.998 51.6961C894.998 53.4199 894.564 54.9687 893.697 56.3424C892.83 57.7161 891.581 58.8069 889.952 59.615C888.323 60.3961 886.391 60.7866 884.158 60.7866C883.317 60.7866 882.476 60.6924 881.635 60.5038C880.794 60.3153 880.045 60.0594 879.388 59.7362C878.967 59.6015 878.521 59.4668 878.048 59.3321C877.601 59.1705 877.154 59.0359 876.707 58.9281V61.4735H872.923V49.1507Z" fill="white"/>
<path d="M897.16 64.5441H900.195V43.9388H897.16V40.1006H906.66V42.646C907.317 41.6763 908.119 40.9491 909.065 40.4642C910.037 39.9525 911.154 39.6966 912.415 39.6966C914.123 39.6966 915.661 40.1275 917.027 40.9895C918.394 41.8514 919.458 43.0769 920.22 44.6661C920.982 46.2552 921.363 48.1003 921.363 50.2012C921.363 52.2752 920.969 54.1068 920.181 55.6959C919.419 57.2851 918.354 58.5241 916.988 59.413C915.648 60.2749 914.123 60.7058 912.415 60.7058C911.233 60.7058 910.195 60.4769 909.301 60.019C908.408 59.5611 907.646 58.8743 907.015 57.9585V64.7461H911.942V68.3823H897.16V64.5441ZM910.523 56.5848C911.206 56.5848 911.811 56.3693 912.336 55.9383C912.862 55.4805 913.256 54.7801 913.519 53.8374C913.808 52.8947 913.953 51.6826 913.953 50.2012C913.953 48.7198 913.808 47.5077 913.519 46.565C913.256 45.5953 912.862 44.895 912.336 44.4641C911.811 44.0331 911.206 43.8176 910.523 43.8176C909.761 43.8176 909.078 44.1004 908.473 44.6661C907.895 45.2048 907.449 45.959 907.133 46.9286C906.818 47.8983 906.66 48.9891 906.66 50.2012C906.66 51.3863 906.818 52.4637 907.133 53.4334C907.449 54.4031 907.895 55.1707 908.473 55.7363C909.078 56.302 909.761 56.5848 910.523 56.5848Z" fill="white"/>
<path d="M922.952 56.4636H925.987V43.9388H922.952V40.1006H932.452V42.848C932.846 41.8783 933.411 41.1241 934.147 40.5854C934.883 40.0467 935.724 39.7774 936.67 39.7774C937.064 39.7774 937.524 39.8582 938.049 40.0198C938.207 40.0737 938.365 40.1275 938.522 40.1814C938.68 40.2353 938.825 40.2891 938.956 40.343V38.4441H942.464V49.1507H939.074V48.5851C939.074 47.9387 938.864 47.2788 938.443 46.6054C938.049 45.9051 937.55 45.326 936.946 44.8681C936.367 44.4102 935.842 44.1812 935.369 44.1812C934.87 44.1812 934.423 44.3967 934.029 44.8277C933.661 45.2317 933.358 45.8243 933.122 46.6054C932.912 47.3596 932.807 48.2754 932.807 49.3528V56.4636H937.616V60.3018H922.952V56.4636Z" fill="white"/>
<path d="M945.009 56.4636H948.045V43.9388H945.009V40.1006H954.864V56.4636H957.899V60.3018H945.009V56.4636ZM946.507 30.202H955.574L951.238 38.2825H950.844L946.507 30.202Z" fill="white"/>
<path d="M961.36 43.9388H958.916V40.1006H971.57V43.9388H968.889L972.792 54.6455H972.91L976.852 43.9388H973.619V40.1006H983.435V43.9388H980.991L974.605 60.3018H967.825L961.36 43.9388Z" fill="white"/>
<path d="M989.582 60.7058C987.533 60.7058 985.943 60.2075 984.813 59.2109C983.683 58.1874 983.118 56.8272 983.118 55.1303C983.118 53.3257 983.814 51.925 985.207 50.9284C986.6 49.9319 988.663 49.3258 991.396 49.1103C992.683 49.0026 993.695 48.8275 994.431 48.5851C995.193 48.3427 995.745 48.006 996.087 47.5751C996.454 47.1172 996.638 46.5246 996.638 45.7973C996.638 44.8007 996.454 44.087 996.087 43.656C995.719 43.2251 995.167 43.0096 994.431 43.0096C993.695 43.0096 992.894 43.2655 992.026 43.7772C991.185 44.289 990.463 44.922 989.858 45.6761C989.254 46.4303 988.912 47.1441 988.833 47.8175V48.1407H985.325V38.7673H988.794V40.5046C989.766 40.3969 990.673 40.2622 991.514 40.1006C992.013 39.9659 992.539 39.8717 993.091 39.8178C993.643 39.737 994.221 39.6966 994.825 39.6966C997.506 39.6966 999.595 40.4238 1001.09 41.8783C1002.59 43.3328 1003.34 45.3664 1003.34 47.9791V56.4636H1005.86V60.3018H996.835V57.1908C996.073 58.376 995.075 59.2648 993.84 59.8574C992.631 60.423 991.212 60.7058 989.582 60.7058ZM992.46 56.908C993.143 56.908 993.813 56.6791 994.47 56.2212C995.154 55.7363 995.705 55.0899 996.126 54.2818C996.573 53.4469 996.796 52.5041 996.796 51.4537V49.3124C996.454 49.6894 996.021 50.0261 995.495 50.3224C994.97 50.5918 994.326 50.7938 993.564 50.9284C992.486 51.117 991.672 51.4941 991.12 52.0597C990.568 52.5984 990.292 53.3391 990.292 54.2818C990.292 55.063 990.489 55.6959 990.883 56.1808C991.277 56.6656 991.803 56.908 992.46 56.908Z" fill="white"/>
<path d="M1022.4 59.8574C1021.82 60.0729 1021.02 60.2479 1019.99 60.3826C1019.44 60.4904 1018.89 60.5712 1018.34 60.625C1017.79 60.6789 1017.23 60.7058 1016.68 60.7058C1014.63 60.7058 1012.79 60.2614 1011.16 59.3726C1009.53 58.4568 1008.26 57.2043 1007.34 55.6151C1006.45 53.999 1006 52.1944 1006 50.2012C1006 48.1811 1006.45 46.3764 1007.34 44.7873C1008.26 43.1981 1009.53 41.9591 1011.16 41.0703C1012.79 40.1545 1014.63 39.6966 1016.68 39.6966C1017.65 39.6966 1018.65 39.7909 1019.68 39.9794C1020.62 40.141 1021.4 40.3161 1022 40.5046V38.7673H1025.51L1025.47 48.7063H1021.81V48.3831C1021.73 47.6828 1021.41 46.9421 1020.86 46.161C1020.31 45.3798 1019.66 44.7199 1018.93 44.1812C1018.19 43.6425 1017.52 43.3732 1016.92 43.3732C1016.16 43.3732 1015.5 43.6291 1014.95 44.1408C1014.4 44.6526 1013.96 45.4203 1013.65 46.4438C1013.36 47.4404 1013.21 48.6928 1013.21 50.2012C1013.21 51.6826 1013.36 52.9351 1013.65 53.9586C1013.96 54.9552 1014.4 55.7094 1014.95 56.2212C1015.5 56.7329 1016.16 56.9888 1016.92 56.9888C1017.58 56.9888 1018.3 56.7329 1019.09 56.2212C1019.87 55.6825 1020.56 55.0226 1021.14 54.2414C1021.71 53.4603 1022.07 52.7196 1022.2 52.0193V51.6961H1025.87V61.6351H1022.4V59.8574Z" fill="white"/>
<path d="M1029.33 57.6756H1032.8V59.413C1032.8 60.1671 1033.07 60.9752 1033.59 61.8371C1034.12 62.726 1034.75 63.4667 1035.48 64.0592C1036.25 64.6787 1036.93 64.9885 1037.53 64.9885C1037.85 64.9885 1038.11 64.8807 1038.32 64.6653C1038.53 64.4498 1038.64 64.167 1038.64 63.8168V63.7764C1038.64 63.534 1038.55 63.1838 1038.36 62.726C1038.2 62.295 1037.81 61.4061 1037.18 60.0594C1037.02 59.7092 1036.84 59.3321 1036.63 58.9281C1036.44 58.5241 1036.25 58.0931 1036.04 57.6353L1029.45 43.9388H1027.09V40.1006H1039.58V43.9388H1037.26L1040.53 51.8173C1040.61 52.0328 1040.7 52.2752 1040.81 52.5445C1040.91 52.787 1041.02 53.0428 1041.12 53.3122C1041.36 53.9048 1041.53 54.3761 1041.63 54.7263C1041.69 54.4839 1041.74 54.2684 1041.79 54.0798C1041.84 53.8644 1041.91 53.6354 1041.99 53.393L1045.1 43.9388H1041.83V40.1006H1051.61V43.9388H1048.93L1044.43 55.8575C1044.41 55.9114 1044.39 55.9653 1044.39 56.0191C1044.39 56.0461 1044.38 56.0865 1044.35 56.1404C1044.12 56.8137 1043.95 57.4332 1043.84 57.9989C1043.76 58.5645 1043.72 59.184 1043.72 59.8574V60.5038C1043.72 62.2546 1043.47 63.7495 1042.97 64.9885C1042.5 66.2275 1041.82 67.1702 1040.92 67.8167C1040.03 68.4631 1038.99 68.7863 1037.81 68.7863C1037.23 68.7863 1036.64 68.7324 1036.04 68.6247C1035.43 68.5439 1034.87 68.4227 1034.34 68.2611C1033.76 68.0995 1033.28 67.8975 1032.88 67.655V69.5136H1029.33V57.6756Z" fill="white"/>
<path d="M1062.07 41.7266C1062.07 40.622 1062.97 39.7266 1064.07 39.7266H1113.04C1114.14 39.7266 1115.04 40.622 1115.04 41.7266V57.9278C1115.04 59.0323 1114.14 59.9278 1113.04 59.9278H1064.07C1062.97 59.9278 1062.07 59.0323 1062.07 57.9278V41.7266Z" fill="white"/>
<path d="M1788.04 55.8334H1791.14V43.3758H1788.04V39.5581H1797.73V42.2104C1798.34 41.1923 1799.12 40.4288 1800.06 39.9198C1801.02 39.4108 1802.15 39.1562 1803.43 39.1562C1804.99 39.1562 1806.33 39.5179 1807.45 40.2413C1808.58 40.9378 1809.45 41.9559 1810.06 43.2954C1810.68 44.6349 1810.99 46.2022 1810.99 47.9971V55.8334H1813.64V59.6511H1801.5V55.8334H1804V48.5196C1804 46.805 1803.76 45.519 1803.27 44.6617C1802.79 43.8044 1802.12 43.3758 1801.26 43.3758C1800.62 43.3758 1800.06 43.6169 1799.58 44.0991C1799.09 44.5546 1798.72 45.2109 1798.45 46.0682C1798.21 46.9255 1798.09 47.9168 1798.09 49.042V55.8334H1800.5V59.6511H1788.04V55.8334Z" fill="white"/>
<path d="M1826.51 60.0529C1824.26 60.0529 1822.26 59.6109 1820.52 58.7268C1818.81 57.8427 1817.47 56.6103 1816.5 55.0297C1815.54 53.449 1815.06 51.6407 1815.06 49.6046C1815.06 47.5685 1815.54 45.7601 1816.5 44.1795C1817.47 42.5988 1818.82 41.3665 1820.56 40.4824C1822.3 39.5983 1824.29 39.1562 1826.51 39.1562C1828.73 39.1562 1830.72 39.5983 1832.46 40.4824C1834.2 41.3665 1835.55 42.5988 1836.52 44.1795C1837.48 45.7601 1837.96 47.5685 1837.96 49.6046C1837.96 51.6139 1837.47 53.4088 1836.48 54.9895C1835.51 56.5701 1834.16 57.8159 1832.42 58.7268C1830.68 59.6109 1828.71 60.0529 1826.51 60.0529ZM1826.51 56.3156C1827.34 56.3156 1828.05 56.0745 1828.64 55.5923C1829.23 55.0833 1829.67 54.3331 1829.97 53.3419C1830.26 52.3506 1830.41 51.1049 1830.41 49.6046C1830.41 48.1043 1830.26 46.8585 1829.97 45.8673C1829.67 44.8493 1829.23 44.0991 1828.64 43.6169C1828.05 43.1079 1827.34 42.8534 1826.51 42.8534C1825.65 42.8534 1824.93 43.1079 1824.34 43.6169C1823.78 44.0991 1823.33 44.8493 1823.01 45.8673C1822.72 46.8585 1822.57 48.1043 1822.57 49.6046C1822.57 51.1049 1822.72 52.3506 1823.01 53.3419C1823.33 54.3331 1823.78 55.0833 1824.34 55.5923C1824.93 56.0745 1825.65 56.3156 1826.51 56.3156Z" fill="white"/>
<path d="M1840.65 43.3758H1838.32V39.5581H1849.01V43.3758H1847.89L1850.66 54.7484H1850.78L1852.87 47.0327L1851.67 43.3758H1850.02V39.5581H1861.35V43.3758H1859.5L1862.64 54.7886H1862.8L1865.57 43.3758H1863.48V39.5581H1872V43.3758H1869.63L1865.09 59.6511H1857.69L1855.12 49.9663L1852.47 59.6511H1845.16L1840.65 43.3758Z" fill="white"/>
<path d="M1454.29 43.9388H1452V40.1006H1462.49V43.9388H1461.38L1464.1 55.3727H1464.22L1466.27 47.6154L1465.09 43.9388H1463.47V40.1006H1474.59V43.9388H1472.77L1475.85 55.4131H1476.01L1478.73 43.9388H1476.68V40.1006H1485.03V43.9388H1482.71L1478.25 60.3018H1471L1468.48 50.5648L1465.88 60.3018H1458.7L1454.29 43.9388Z" fill="white"/>
<path d="M1501.66 59.817C1501.06 60.0325 1500.27 60.221 1499.29 60.3826C1498.74 60.4634 1498.18 60.5308 1497.6 60.5846C1497.05 60.6654 1496.48 60.7058 1495.9 60.7058C1493.88 60.7058 1492.07 60.2749 1490.47 59.413C1488.86 58.551 1487.6 57.339 1486.68 55.7767C1485.79 54.2145 1485.34 52.4099 1485.34 50.3628C1485.34 48.2619 1485.79 46.4034 1486.68 44.7873C1487.6 43.1712 1488.88 41.9187 1490.5 41.0299C1492.13 40.141 1494 39.6966 1496.1 39.6966C1498.2 39.6966 1500.04 40.141 1501.62 41.0299C1503.22 41.8918 1504.46 43.1173 1505.33 44.7065C1506.19 46.2687 1506.64 48.0868 1506.67 50.1608C1506.67 50.3493 1506.65 50.5514 1506.63 50.7668C1506.63 50.9554 1506.61 51.1574 1506.59 51.3729H1492.4C1492.5 52.6927 1492.71 53.8105 1493.03 54.7263C1493.37 55.6421 1493.8 56.3289 1494.33 56.7868C1494.85 57.2447 1495.46 57.4736 1496.14 57.4736C1496.75 57.4736 1497.42 57.2447 1498.15 56.7868C1498.91 56.3289 1499.57 55.7902 1500.12 55.1707C1500.7 54.5512 1501.06 53.999 1501.19 53.5142V53.2718H1505.17V61.6351H1501.66V59.817ZM1499.61 48.9487C1499.48 47.575 1499.26 46.4572 1498.94 45.5953C1498.62 44.7065 1498.22 44.0466 1497.72 43.6156C1497.22 43.1847 1496.64 42.9692 1495.98 42.9692C1495.33 42.9692 1494.75 43.1981 1494.25 43.656C1493.75 44.087 1493.34 44.7469 1493.03 45.6357C1492.74 46.5246 1492.54 47.6289 1492.44 48.9487H1499.61Z" fill="white"/>
<path d="M1522.53 60.7058C1521.26 60.7058 1520.16 60.4634 1519.21 59.9786C1518.27 59.4668 1517.47 58.7126 1516.81 57.7161V60.3018H1510.35V35.8584H1507.19V32.0201H1517.13V42.4035C1517.76 41.5147 1518.52 40.8413 1519.41 40.3834C1520.33 39.9255 1521.37 39.6966 1522.53 39.6966C1524.23 39.6966 1525.77 40.141 1527.14 41.0299C1528.5 41.8918 1529.57 43.1173 1530.33 44.7065C1531.09 46.2956 1531.47 48.1272 1531.47 50.2012C1531.47 52.2752 1531.09 54.1068 1530.33 55.6959C1529.57 57.2851 1528.5 58.5241 1527.14 59.413C1525.8 60.2749 1524.26 60.7058 1522.53 60.7058ZM1520.63 56.5848C1521.34 56.5848 1521.95 56.3693 1522.45 55.9383C1522.97 55.4805 1523.38 54.7801 1523.67 53.8374C1523.96 52.8947 1524.1 51.6826 1524.1 50.2012C1524.1 48.7198 1523.96 47.5077 1523.67 46.565C1523.38 45.5953 1522.97 44.895 1522.45 44.4641C1521.95 44.0331 1521.34 43.8176 1520.63 43.8176C1519.9 43.8176 1519.23 44.1004 1518.62 44.6661C1518.05 45.2048 1517.59 45.959 1517.24 46.9286C1516.93 47.8983 1516.77 48.9891 1516.77 50.2012C1516.77 51.3863 1516.93 52.4637 1517.24 53.4334C1517.59 54.4031 1518.05 55.1707 1518.62 55.7363C1519.23 56.302 1519.9 56.5848 1520.63 56.5848Z" fill="white"/>
<path d="M1534.92 49.1507H1538.63V49.3528C1538.63 50.3763 1538.96 51.4941 1539.61 52.7062C1540.3 53.9182 1541.16 54.9418 1542.22 55.7767C1543.29 56.5848 1544.37 56.9888 1545.45 56.9888C1546.24 56.9888 1546.89 56.7733 1547.42 56.3424C1547.94 55.8845 1548.33 55.2784 1548.56 54.5243C1548.82 53.7431 1548.96 52.8543 1548.96 51.8577C1548.96 50.7803 1548.81 49.878 1548.52 49.1507C1548.23 48.4235 1547.84 47.8848 1547.34 47.5346C1546.87 47.1576 1546.33 46.969 1545.72 46.969C1545.28 46.969 1544.82 47.0633 1544.34 47.2518C1543.9 47.4404 1543.48 47.7097 1543.08 48.0599L1542.69 48.4235L1540.8 45.8377L1548.84 38.8481H1541.94C1541.26 38.8481 1540.73 38.8885 1540.36 38.9693C1540.02 39.0501 1539.76 39.1983 1539.57 39.4138C1539.42 39.6292 1539.34 39.9659 1539.34 40.4238V41.7975H1535.59V30H1539.38V32.0201H1556.6V35.8179L1547.14 44.5449C1547.48 44.4102 1547.87 44.3159 1548.29 44.2621C1548.71 44.1812 1549.1 44.1408 1549.47 44.1408C1550.89 44.1408 1552.16 44.4641 1553.29 45.1105C1554.45 45.73 1555.36 46.6189 1556.01 47.7771C1556.67 48.9083 1557 50.2147 1557 51.6961C1557 53.4199 1556.56 54.9687 1555.7 56.3424C1554.83 57.7161 1553.58 58.8069 1551.95 59.615C1550.32 60.3961 1548.39 60.7866 1546.16 60.7866C1545.32 60.7866 1544.48 60.6924 1543.63 60.5038C1542.79 60.3153 1542.04 60.0594 1541.39 59.7362C1540.97 59.6015 1540.52 59.4668 1540.05 59.3321C1539.6 59.1705 1539.15 59.0359 1538.71 58.9281V61.4735H1534.92V49.1507Z" fill="white"/>
<path d="M1559.16 64.5441H1562.2V43.9388H1559.16V40.1006H1568.66V42.646C1569.32 41.6763 1570.12 40.9491 1571.06 40.4642C1572.04 39.9525 1573.15 39.6966 1574.42 39.6966C1576.12 39.6966 1577.66 40.1275 1579.03 40.9895C1580.39 41.8514 1581.46 43.0769 1582.22 44.6661C1582.98 46.2552 1583.36 48.1003 1583.36 50.2012C1583.36 52.2752 1582.97 54.1068 1582.18 55.6959C1581.42 57.2851 1580.35 58.5241 1578.99 59.413C1577.65 60.2749 1576.12 60.7058 1574.42 60.7058C1573.23 60.7058 1572.19 60.4769 1571.3 60.019C1570.41 59.5611 1569.65 58.8743 1569.01 57.9585V64.7461H1573.94V68.3823H1559.16V64.5441ZM1572.52 56.5848C1573.21 56.5848 1573.81 56.3693 1574.34 55.9383C1574.86 55.4805 1575.26 54.7801 1575.52 53.8374C1575.81 52.8947 1575.95 51.6826 1575.95 50.2012C1575.95 48.7198 1575.81 47.5077 1575.52 46.565C1575.26 45.5953 1574.86 44.895 1574.34 44.4641C1573.81 44.0331 1573.21 43.8176 1572.52 43.8176C1571.76 43.8176 1571.08 44.1004 1570.47 44.6661C1569.9 45.2048 1569.45 45.959 1569.13 46.9286C1568.82 47.8983 1568.66 48.9891 1568.66 50.2012C1568.66 51.3863 1568.82 52.4637 1569.13 53.4334C1569.45 54.4031 1569.9 55.1707 1570.47 55.7363C1571.08 56.302 1571.76 56.5848 1572.52 56.5848Z" fill="white"/>
<path d="M1584.95 56.4636H1587.99V43.9388H1584.95V40.1006H1594.45V42.848C1594.85 41.8783 1595.41 41.1241 1596.15 40.5854C1596.88 40.0467 1597.72 39.7774 1598.67 39.7774C1599.06 39.7774 1599.52 39.8582 1600.05 40.0198C1600.21 40.0737 1600.36 40.1275 1600.52 40.1814C1600.68 40.2353 1600.82 40.2891 1600.96 40.343V38.4441H1604.46V49.1507H1601.07V48.5851C1601.07 47.9387 1600.86 47.2788 1600.44 46.6054C1600.05 45.9051 1599.55 45.326 1598.95 44.8681C1598.37 44.4102 1597.84 44.1812 1597.37 44.1812C1596.87 44.1812 1596.42 44.3967 1596.03 44.8277C1595.66 45.2317 1595.36 45.8243 1595.12 46.6054C1594.91 47.3596 1594.81 48.2754 1594.81 49.3528V56.4636H1599.62V60.3018H1584.95V56.4636Z" fill="white"/>
<path d="M1607.01 56.4636H1610.04V43.9388H1607.01V40.1006H1616.86V56.4636H1619.9V60.3018H1607.01V56.4636ZM1608.51 30.202H1617.57L1613.24 38.2825H1612.84L1608.51 30.202Z" fill="white"/>
<path d="M1623.36 43.9388H1620.92V40.1006H1633.57V43.9388H1630.89L1634.79 54.6455H1634.91L1638.85 43.9388H1635.62V40.1006H1645.43V43.9388H1642.99L1636.6 60.3018H1629.82L1623.36 43.9388Z" fill="white"/>
<path d="M1651.58 60.7058C1649.53 60.7058 1647.94 60.2075 1646.81 59.2109C1645.68 58.1874 1645.12 56.8272 1645.12 55.1303C1645.12 53.3257 1645.81 51.925 1647.21 50.9284C1648.6 49.9319 1650.66 49.3258 1653.4 49.1103C1654.68 49.0026 1655.7 48.8275 1656.43 48.5851C1657.19 48.3427 1657.74 48.006 1658.09 47.5751C1658.45 47.1172 1658.64 46.5246 1658.64 45.7973C1658.64 44.8007 1658.45 44.087 1658.09 43.656C1657.72 43.2251 1657.17 43.0096 1656.43 43.0096C1655.7 43.0096 1654.89 43.2655 1654.03 43.7772C1653.19 44.289 1652.46 44.922 1651.86 45.6761C1651.25 46.4303 1650.91 47.1441 1650.83 47.8175V48.1407H1647.33V38.7673H1650.79V40.5046C1651.77 40.3969 1652.67 40.2622 1653.51 40.1006C1654.01 39.9659 1654.54 39.8717 1655.09 39.8178C1655.64 39.737 1656.22 39.6966 1656.83 39.6966C1659.51 39.6966 1661.59 40.4238 1663.09 41.8783C1664.59 43.3328 1665.34 45.3664 1665.34 47.9791V56.4636H1667.86V60.3018H1658.84V57.1908C1658.07 58.376 1657.07 59.2648 1655.84 59.8574C1654.63 60.423 1653.21 60.7058 1651.58 60.7058ZM1654.46 56.908C1655.14 56.908 1655.81 56.6791 1656.47 56.2212C1657.15 55.7363 1657.71 55.0899 1658.13 54.2818C1658.57 53.4469 1658.8 52.5041 1658.8 51.4537V49.3124C1658.45 49.6894 1658.02 50.0261 1657.5 50.3224C1656.97 50.5918 1656.33 50.7938 1655.56 50.9284C1654.49 51.117 1653.67 51.4941 1653.12 52.0597C1652.57 52.5984 1652.29 53.3391 1652.29 54.2818C1652.29 55.063 1652.49 55.6959 1652.88 56.1808C1653.28 56.6656 1653.8 56.908 1654.46 56.908Z" fill="white"/>
<path d="M1684.4 59.8574C1683.82 60.0729 1683.02 60.2479 1681.99 60.3826C1681.44 60.4904 1680.89 60.5712 1680.34 60.625C1679.79 60.6789 1679.23 60.7058 1678.68 60.7058C1676.63 60.7058 1674.79 60.2614 1673.16 59.3726C1671.53 58.4568 1670.26 57.2043 1669.34 55.6151C1668.45 53.999 1668 52.1944 1668 50.2012C1668 48.1811 1668.45 46.3764 1669.34 44.7873C1670.26 43.1981 1671.53 41.9591 1673.16 41.0703C1674.79 40.1545 1676.63 39.6966 1678.68 39.6966C1679.65 39.6966 1680.65 39.7909 1681.68 39.9794C1682.62 40.141 1683.4 40.3161 1684 40.5046V38.7673H1687.51L1687.47 48.7063H1683.81V48.3831C1683.73 47.6828 1683.41 46.9421 1682.86 46.161C1682.31 45.3798 1681.66 44.7199 1680.93 44.1812C1680.19 43.6425 1679.52 43.3732 1678.92 43.3732C1678.16 43.3732 1677.5 43.6291 1676.95 44.1408C1676.4 44.6526 1675.96 45.4203 1675.65 46.4438C1675.36 47.4404 1675.21 48.6928 1675.21 50.2012C1675.21 51.6826 1675.36 52.9351 1675.65 53.9586C1675.96 54.9552 1676.4 55.7094 1676.95 56.2212C1677.5 56.7329 1678.16 56.9888 1678.92 56.9888C1679.58 56.9888 1680.3 56.7329 1681.09 56.2212C1681.87 55.6825 1682.56 55.0226 1683.14 54.2414C1683.71 53.4603 1684.07 52.7196 1684.2 52.0193V51.6961H1687.87V61.6351H1684.4V59.8574Z" fill="white"/>
<path d="M1691.33 57.6756H1694.8V59.413C1694.8 60.1671 1695.07 60.9752 1695.59 61.8371C1696.12 62.726 1696.75 63.4667 1697.48 64.0592C1698.25 64.6787 1698.93 64.9885 1699.53 64.9885C1699.85 64.9885 1700.11 64.8807 1700.32 64.6653C1700.53 64.4498 1700.64 64.167 1700.64 63.8168V63.7764C1700.64 63.534 1700.55 63.1838 1700.36 62.726C1700.2 62.295 1699.81 61.4061 1699.18 60.0594C1699.02 59.7092 1698.84 59.3321 1698.63 58.9281C1698.44 58.5241 1698.25 58.0931 1698.04 57.6353L1691.45 43.9388H1689.09V40.1006H1701.58V43.9388H1699.26L1702.53 51.8173C1702.61 52.0328 1702.7 52.2752 1702.81 52.5445C1702.91 52.787 1703.02 53.0428 1703.12 53.3122C1703.36 53.9048 1703.53 54.3761 1703.63 54.7263C1703.69 54.4839 1703.74 54.2684 1703.79 54.0798C1703.84 53.8644 1703.91 53.6354 1703.99 53.393L1707.1 43.9388H1703.83V40.1006H1713.61V43.9388H1710.93L1706.43 55.8575C1706.41 55.9114 1706.39 55.9653 1706.39 56.0191C1706.39 56.0461 1706.38 56.0865 1706.35 56.1404C1706.12 56.8137 1705.95 57.4332 1705.84 57.9989C1705.76 58.5645 1705.72 59.184 1705.72 59.8574V60.5038C1705.72 62.2546 1705.47 63.7495 1704.97 64.9885C1704.5 66.2275 1703.82 67.1702 1702.92 67.8167C1702.03 68.4631 1700.99 68.7863 1699.81 68.7863C1699.23 68.7863 1698.64 68.7324 1698.04 68.6247C1697.43 68.5439 1696.87 68.4227 1696.34 68.2611C1695.76 68.0995 1695.28 67.8975 1694.88 67.655V69.5136H1691.33V57.6756Z" fill="white"/>
<path d="M1724.07 41.7266C1724.07 40.622 1724.97 39.7266 1726.07 39.7266H1775.04C1776.14 39.7266 1777.04 40.622 1777.04 41.7266V57.9278C1777.04 59.0323 1776.14 59.9278 1775.04 59.9278H1726.07C1724.97 59.9278 1724.07 59.0323 1724.07 57.9278V41.7266Z" fill="white"/>
</svg>
