<svg width="200" height="55" viewBox="0 0 200 55" fill="none" xmlns="http://www.w3.org/2000/svg">
<path d="M53.6523 51.7213H56.018V42.0414H53.6523V39.075H61.0564V41.1359C61.5275 40.3449 62.1215 39.7516 62.8383 39.356C63.5757 38.9605 64.4359 38.7628 65.419 38.7628C66.607 38.7628 67.631 39.0438 68.4913 39.6058C69.3515 40.1471 70.0171 40.9381 70.4882 41.979C70.9593 43.0198 71.1948 44.2376 71.1948 45.6324V51.7213H73.2225V54.6877H63.9443V51.7213H65.8491V46.0383C65.8491 44.706 65.6648 43.7068 65.2961 43.0406C64.9275 42.3745 64.4154 42.0414 63.76 42.0414C63.2685 42.0414 62.8383 42.2288 62.4697 42.6035C62.101 42.9574 61.8143 43.4674 61.6094 44.1335C61.4251 44.7997 61.3329 45.5699 61.3329 46.4442V51.7213H63.1763V54.6877H53.6523V51.7213Z" fill="white"/>
<path d="M83.0606 55C81.3402 55 79.8143 54.6565 78.483 53.9696C77.1722 53.2826 76.1481 52.325 75.4108 51.0968C74.6734 49.8686 74.3048 48.4635 74.3048 46.8814C74.3048 45.2993 74.6734 43.8941 75.4108 42.6659C76.1481 41.4377 77.1824 40.4802 78.5137 39.7932C79.845 39.1062 81.3607 38.7628 83.0606 38.7628C84.7606 38.7628 86.2762 39.1062 87.6075 39.7932C88.9388 40.4802 89.9732 41.4377 90.7105 42.6659C91.4478 43.8941 91.8165 45.2993 91.8165 46.8814C91.8165 48.4427 91.4376 49.8374 90.6798 51.0656C89.9425 52.2938 88.9081 53.2618 87.5768 53.9696C86.2455 54.6565 84.7401 55 83.0606 55ZM83.0606 52.096C83.6956 52.096 84.2383 51.9087 84.6889 51.534C85.1395 51.1385 85.4775 50.5556 85.7028 49.7853C85.9281 49.0151 86.0407 48.0471 86.0407 46.8814C86.0407 45.7156 85.9281 44.7476 85.7028 43.9774C85.4775 43.1864 85.1395 42.6035 84.6889 42.2288C84.2383 41.8333 83.6956 41.6355 83.0606 41.6355C82.4052 41.6355 81.8522 41.8333 81.4016 42.2288C80.9715 42.6035 80.6336 43.1864 80.3878 43.9774C80.1625 44.7476 80.0498 45.7156 80.0498 46.8814C80.0498 48.0471 80.1625 49.0151 80.3878 49.7853C80.6336 50.5556 80.9715 51.1385 81.4016 51.534C81.8522 51.9087 82.4052 52.096 83.0606 52.096Z" fill="white"/>
<path d="M93.8749 42.0414H92.093V39.075H100.265V42.0414H99.4049L101.525 50.8782H101.617L103.215 44.8829L102.293 42.0414H101.033V39.075H109.697V42.0414H108.284L110.68 50.9095H110.803L112.923 42.0414H111.325V39.075H117.838V42.0414H116.026L112.554 54.6877H106.901L104.935 47.1624L102.907 54.6877H97.3158L93.8749 42.0414Z" fill="white"/>
<path d="M1.74789 10.8308H0V7.84843H8.01618V10.8308H7.17237L9.25176 19.7153H9.34216L10.9092 13.6877L10.0052 10.8308H8.76958V7.84843H17.2679V10.8308H15.8817L18.2323 19.7466H18.3528L20.4322 10.8308H18.8651V7.84843H25.254V10.8308H23.476L20.0706 23.5453H14.5256L12.5969 15.9794L10.6079 23.5453H5.12312L1.74789 10.8308Z" fill="white"/>
<path d="M37.9655 23.1686C37.5034 23.336 36.9007 23.4825 36.1573 23.6081C35.7354 23.6709 35.3035 23.7232 34.8615 23.765C34.4396 23.8278 34.0076 23.8592 33.5656 23.8592C32.0187 23.8592 30.6324 23.5244 29.4069 22.8546C28.1813 22.1849 27.217 21.2431 26.5138 20.0292C25.8307 18.8153 25.4892 17.413 25.4892 15.8224C25.4892 14.19 25.8307 12.7458 26.5138 11.4901C27.217 10.2344 28.1914 9.26115 29.437 8.57048C30.6826 7.87982 32.1091 7.53449 33.7163 7.53449C35.3236 7.53449 36.7299 7.87982 37.9354 8.57048C39.1609 9.24022 40.1052 10.1925 40.7681 11.4273C41.4311 12.6412 41.7727 14.0539 41.7928 15.6655C41.7928 15.812 41.7827 15.9689 41.7626 16.1364C41.7626 16.2829 41.7526 16.4398 41.7325 16.6073H30.8835C30.9639 17.6328 31.1246 18.5014 31.3657 19.213C31.6269 19.9245 31.9584 20.4582 32.3602 20.814C32.762 21.1698 33.2241 21.3477 33.7465 21.3477C34.2085 21.3477 34.7208 21.1698 35.2834 20.814C35.866 20.4582 36.3683 20.0397 36.7902 19.5583C37.2322 19.0769 37.5034 18.6479 37.6039 18.2711V18.0828H40.6476V24.5813H37.9655V23.1686ZM36.3984 14.7237C36.298 13.6563 36.1272 12.7877 35.8861 12.118C35.645 11.4273 35.3336 10.9145 34.9519 10.5797C34.5702 10.2448 34.1282 10.0774 33.6259 10.0774C33.1236 10.0774 32.6816 10.2553 32.2999 10.6111C31.9182 10.9459 31.6068 11.4587 31.3657 12.1494C31.1447 12.84 30.994 13.6981 30.9137 14.7237H36.3984Z" fill="white"/>
<path d="M53.9176 23.8592C52.9532 23.8592 52.1094 23.6709 51.3861 23.2941C50.6629 22.8965 50.0501 22.3105 49.5478 21.5361V23.5453H44.6055V4.55209H42.1947V1.56969H49.7889V9.63787C50.2711 8.94721 50.8537 8.42398 51.5368 8.06818C52.24 7.71239 53.0336 7.53449 53.9176 7.53449C55.2235 7.53449 56.3988 7.87982 57.4435 8.57048C58.4882 9.24022 59.3019 10.1925 59.8845 11.4273C60.4671 12.6621 60.7584 14.0853 60.7584 15.6969C60.7584 17.3084 60.4671 18.7316 59.8845 19.9664C59.3019 21.2012 58.4882 22.164 57.4435 22.8546C56.4189 23.5244 55.2436 23.8592 53.9176 23.8592ZM52.471 20.6571C53.0135 20.6571 53.4756 20.4896 53.8573 20.1548C54.2591 19.799 54.5705 19.2548 54.7915 18.5223C55.0125 17.7898 55.123 16.848 55.123 15.6969C55.123 14.5458 55.0125 13.6039 54.7915 12.8714C54.5705 12.118 54.2591 11.5738 53.8573 11.2389C53.4756 10.9041 53.0135 10.7367 52.471 10.7367C51.9085 10.7367 51.3962 10.9564 50.9341 11.3959C50.4921 11.8145 50.1405 12.4005 49.8793 13.154C49.6383 13.9074 49.5177 14.755 49.5177 15.6969C49.5177 16.6177 49.6383 17.4549 49.8793 18.2084C50.1405 18.9618 50.4921 19.5583 50.9341 19.9978C51.3962 20.4373 51.9085 20.6571 52.471 20.6571Z" fill="white"/>
<path d="M63.3954 14.8806H66.2281V15.0376C66.2281 15.8329 66.4793 16.7015 66.9815 17.6433C67.5039 18.5851 68.1669 19.3804 68.9705 20.0292C69.7942 20.6571 70.6179 20.971 71.4417 20.971C72.0444 20.971 72.5467 20.8036 72.9485 20.4687C73.3503 20.1129 73.6416 19.642 73.8224 19.056C74.0233 18.449 74.1238 17.7584 74.1238 16.984C74.1238 16.1468 74.0133 15.4457 73.7923 14.8806C73.5713 14.3155 73.2699 13.897 72.8882 13.6249C72.5266 13.3319 72.1147 13.1854 71.6526 13.1854C71.3111 13.1854 70.9595 13.2586 70.5979 13.4051C70.2563 13.5516 69.9349 13.7609 69.6335 14.033L69.3321 14.3155L67.8856 12.3063L74.0334 6.87522H68.7596C68.2372 6.87522 67.8354 6.90662 67.5541 6.96941C67.2929 7.03219 67.092 7.1473 66.9514 7.31474C66.8309 7.48217 66.7706 7.74378 66.7706 8.09958V9.16696H63.9077V0H66.8007V1.56969H79.9702V4.5207L72.7375 11.3017C72.9987 11.1971 73.29 11.1238 73.6115 11.082C73.9329 11.0192 74.2343 10.9878 74.5155 10.9878C75.6004 10.9878 76.5748 11.239 77.4387 11.7412C78.3227 12.2226 79.0158 12.9133 79.5181 13.8132C80.0204 14.6923 80.2715 15.7073 80.2715 16.8584C80.2715 18.1979 79.94 19.4013 79.277 20.4687C78.614 21.5361 77.6597 22.3837 76.4141 23.0116C75.1685 23.6185 73.6918 23.922 71.9841 23.922C71.3412 23.922 70.6983 23.8488 70.0554 23.7023C69.4125 23.5557 68.8399 23.3569 68.3377 23.1058C68.0162 23.0011 67.6747 22.8965 67.313 22.7918C66.9715 22.6663 66.6299 22.5616 66.2884 22.4779V24.4557H63.3954V14.8806Z" fill="white"/>
<path d="M81.9248 26.8416H84.2452V10.8308H81.9248V7.84843H89.1876V9.82623C89.6898 9.07278 90.3026 8.5077 91.0258 8.13097C91.7692 7.73332 92.623 7.53449 93.5874 7.53449C94.8933 7.53449 96.0686 7.86936 97.1133 8.53909C98.158 9.20882 98.9717 10.1611 99.5543 11.3959C100.137 12.6307 100.428 14.0644 100.428 15.6969C100.428 17.3084 100.127 18.7316 99.5242 19.9664C98.9416 21.2012 98.1279 22.164 97.0832 22.8546C96.0586 23.5244 94.8933 23.8592 93.5874 23.8592C92.6833 23.8592 91.8897 23.6813 91.2066 23.3255C90.5236 22.9697 89.9409 22.436 89.4588 21.7245V26.9986H93.2258V29.824H81.9248V26.8416ZM92.1409 20.6571C92.6632 20.6571 93.1253 20.4896 93.5271 20.1548C93.9289 19.799 94.2303 19.2548 94.4312 18.5223C94.6522 17.7898 94.7627 16.848 94.7627 15.6969C94.7627 14.5458 94.6522 13.6039 94.4312 12.8714C94.2303 12.118 93.9289 11.5738 93.5271 11.2389C93.1253 10.9041 92.6632 10.7367 92.1409 10.7367C91.5582 10.7367 91.0359 10.9564 90.5738 11.3959C90.1318 11.8145 89.7902 12.4005 89.5492 13.154C89.3081 13.9074 89.1876 14.755 89.1876 15.6969C89.1876 16.6177 89.3081 17.4549 89.5492 18.2084C89.7902 18.9618 90.1318 19.5583 90.5738 19.9978C91.0359 20.4373 91.5582 20.6571 92.1409 20.6571Z" fill="white"/>
<path d="M101.643 20.5629H103.963V10.8308H101.643V7.84843H108.905V9.9832C109.207 9.22975 109.639 8.64374 110.201 8.22515C110.764 7.80657 111.407 7.59728 112.13 7.59728C112.431 7.59728 112.783 7.66007 113.185 7.78564C113.305 7.8275 113.426 7.86936 113.546 7.91122C113.667 7.95307 113.777 7.99493 113.878 8.03679V6.56129H116.56V14.8806H113.968V14.4411C113.968 13.9388 113.808 13.426 113.486 12.9028C113.185 12.3587 112.803 11.9087 112.341 11.5529C111.899 11.1971 111.497 11.0192 111.136 11.0192C110.754 11.0192 110.412 11.1866 110.111 11.5215C109.83 11.8354 109.599 12.2959 109.418 12.9028C109.257 13.4888 109.177 14.2004 109.177 15.0376V20.5629H112.853V23.5453H101.643V20.5629Z" fill="white"/>
<path d="M118.506 20.5629H120.826V10.8308H118.506V7.84843H126.04V20.5629H128.36V23.5453H118.506V20.5629ZM119.651 0.156968H126.582L123.267 6.43571H122.966L119.651 0.156968Z" fill="white"/>
<path d="M131.006 10.8308H129.138V7.84843H138.811V10.8308H136.762L139.745 19.1502H139.836L142.849 10.8308H140.378V7.84843H147.882V10.8308H146.014L141.132 23.5453H135.948L131.006 10.8308Z" fill="white"/>
<path d="M152.582 23.8592C151.015 23.8592 149.8 23.472 148.936 22.6977C148.072 21.9023 147.64 20.8454 147.64 19.5269C147.64 18.1246 148.172 17.0363 149.237 16.2619C150.302 15.4876 151.879 15.0167 153.968 14.8492C154.953 14.7655 155.726 14.6295 156.289 14.4411C156.872 14.2527 157.293 13.9911 157.555 13.6563C157.836 13.3005 157.977 12.84 157.977 12.2749C157.977 11.5006 157.836 10.9459 157.555 10.6111C157.273 10.2762 156.851 10.1088 156.289 10.1088C155.726 10.1088 155.114 10.3076 154.451 10.7053C153.808 11.1029 153.255 11.5947 152.793 12.1808C152.331 12.7668 152.07 13.3214 152.01 13.8446V14.0958H149.327V6.81243H151.979V8.16237C152.723 8.07865 153.416 7.97401 154.059 7.84843C154.441 7.74379 154.842 7.67053 155.264 7.62867C155.686 7.56589 156.128 7.53449 156.59 7.53449C158.64 7.53449 160.237 8.09958 161.382 9.22975C162.527 10.3599 163.1 11.9401 163.1 13.9702V20.5629H165.028V23.5453H158.127V21.128C157.545 22.0489 156.781 22.7395 155.837 23.2C154.913 23.6395 153.828 23.8592 152.582 23.8592ZM154.782 20.9082C155.304 20.9082 155.817 20.7303 156.319 20.3745C156.841 19.9978 157.263 19.4955 157.585 18.8676C157.926 18.2188 158.097 17.4863 158.097 16.6701V15.0062C157.836 15.2992 157.504 15.5608 157.103 15.791C156.701 16.0003 156.209 16.1573 155.626 16.2619C154.802 16.4084 154.179 16.7015 153.757 17.141C153.336 17.5596 153.125 18.1351 153.125 18.8676C153.125 19.4746 153.275 19.9664 153.577 20.3431C153.878 20.7199 154.28 20.9082 154.782 20.9082Z" fill="white"/>
<path d="M177.67 23.2C177.228 23.3674 176.615 23.5034 175.831 23.6081C175.41 23.6918 174.988 23.7546 174.566 23.7964C174.144 23.8383 173.722 23.8592 173.3 23.8592C171.733 23.8592 170.327 23.5139 169.081 22.8232C167.835 22.1116 166.861 21.1384 166.158 19.9036C165.475 18.6479 165.133 17.2456 165.133 15.6969C165.133 14.1272 165.475 12.7249 166.158 11.4901C166.861 10.2553 167.835 9.29254 169.081 8.60188C170.327 7.89029 171.733 7.53449 173.3 7.53449C174.043 7.53449 174.807 7.60774 175.59 7.75425C176.314 7.87982 176.906 8.01586 177.368 8.16237V6.81243H180.05L180.02 14.5353H177.218V14.2841C177.157 13.74 176.916 13.1644 176.494 12.5575C176.072 11.9505 175.58 11.4378 175.018 11.0192C174.455 10.6006 173.943 10.3913 173.481 10.3913C172.898 10.3913 172.396 10.5901 171.974 10.9878C171.552 11.3855 171.221 11.9819 170.979 12.7772C170.759 13.5516 170.648 14.5248 170.648 15.6969C170.648 16.848 170.759 17.8212 170.979 18.6165C171.221 19.3909 171.552 19.9769 171.974 20.3745C172.396 20.7722 172.898 20.971 173.481 20.971C173.983 20.971 174.536 20.7722 175.138 20.3745C175.741 19.9559 176.263 19.4432 176.705 18.8362C177.147 18.2293 177.419 17.6537 177.519 17.1096V16.8584H180.322V24.5813H177.67V23.2Z" fill="white"/>
<path d="M182.973 21.5047H185.625V22.8546C185.625 23.4406 185.826 24.0685 186.228 24.7382C186.63 25.4289 187.112 26.0045 187.674 26.4649C188.257 26.9463 188.779 27.187 189.241 27.187C189.483 27.187 189.684 27.1032 189.844 26.9358C190.005 26.7684 190.085 26.5486 190.085 26.2765V26.2451C190.085 26.0568 190.015 25.7847 189.874 25.4289C189.754 25.094 189.452 24.4034 188.97 23.3569C188.85 23.0848 188.709 22.7918 188.548 22.4779C188.408 22.164 188.257 21.8291 188.096 21.4733L183.064 10.8308H181.255V7.84843H190.809V10.8308H189.031L191.532 16.9526C191.592 17.12 191.662 17.3084 191.743 17.5177C191.823 17.7061 191.903 17.9049 191.984 18.1142C192.165 18.5746 192.295 18.9409 192.376 19.213C192.416 19.0246 192.456 18.8572 192.496 18.7107C192.536 18.5432 192.587 18.3653 192.647 18.177L195.028 10.8308H192.526V7.84843H200V10.8308H197.951L194.515 20.092C194.495 20.1338 194.485 20.1757 194.485 20.2175C194.485 20.2385 194.475 20.2699 194.455 20.3117C194.274 20.835 194.144 21.3163 194.063 21.7558C194.003 22.1954 193.973 22.6767 193.973 23.2V23.7023C193.973 25.0626 193.782 26.2242 193.4 27.187C193.039 28.1497 192.516 28.8822 191.833 29.3845C191.15 29.8868 190.356 30.138 189.452 30.138C189.01 30.138 188.558 30.0961 188.096 30.0124C187.634 29.9496 187.202 29.8554 186.8 29.7298C186.358 29.6043 185.987 29.4473 185.685 29.2589V30.7031H182.973V21.5047Z" fill="white"/>
<path d="M2.25586 41.7366C2.25586 40.3393 3.37515 39.2066 4.75586 39.2066H40.2511C41.6318 39.2066 42.7511 40.3393 42.7511 41.7366V52.3734C42.7511 53.7707 41.6318 54.9034 40.2511 54.9034H4.75586C3.37515 54.9034 2.25586 53.7707 2.25586 52.3734V41.7366Z" fill="white"/>
</svg>
